<svg width="60" height="60" viewBox="0 0 60 60" fill="none" xmlns="http://www.w3.org/2000/svg">
<path d="M16.25 46.25C16.25 46.0858 16.2177 45.9233 16.1548 45.7716C16.092 45.62 16 45.4822 15.8839 45.3661C15.7678 45.25 15.63 45.158 15.4784 45.0952C15.3267 45.0323 15.1642 45 15 45H11.25C11.0858 45 10.9233 45.0323 10.7716 45.0952C10.62 45.158 10.4822 45.25 10.3661 45.3661C10.25 45.4822 10.158 45.62 10.0952 45.7716C10.0323 45.9233 10 46.0858 10 46.25V52.5C10 52.8315 10.1317 53.1495 10.3661 53.3839C10.6005 53.6183 10.9185 53.75 11.25 53.75H15C15.3315 53.75 15.6495 53.6183 15.8839 53.3839C16.1183 53.1495 16.25 52.8315 16.25 52.5V46.25ZM50 46.25C50 46.0858 49.9677 45.9233 49.9048 45.7716C49.842 45.62 49.75 45.4822 49.6339 45.3661C49.5178 45.25 49.38 45.158 49.2284 45.0952C49.0767 45.0323 48.9141 45 48.75 45H45C44.8358 45 44.6733 45.0323 44.5216 45.0952C44.37 45.158 44.2322 45.25 44.1161 45.3661C44 45.4822 43.908 45.62 43.8451 45.7716C43.7823 45.9233 43.75 46.0858 43.75 46.25V52.5C43.75 52.8315 43.8817 53.1495 44.1161 53.3839C44.3505 53.6183 44.6685 53.75 45 53.75H48.75C49.0815 53.75 49.3995 53.6183 49.6339 53.3839C49.8683 53.1495 50 52.8315 50 52.5V46.25Z" fill="#6D4C41"/>
<path d="M45 37.5H15C15 37.5 19.1988 26.25 20 25C20.8013 23.75 22.09 23.75 22.5 23.75H37.5C37.7675 23.75 39.2575 23.7113 40 25C40.63 26.095 45 37.5 45 37.5Z" fill="#E3F2FD"/>
<path d="M47.5 36.25L30 35L12.5 36.25C11.837 36.25 11.2011 36.5134 10.7322 36.9822C10.2634 37.4511 10 38.087 10 38.75V48.75C10 49.0815 10.1317 49.3995 10.3661 49.6339C10.6005 49.8683 10.9185 50 11.25 50H48.75C49.0815 50 49.3995 49.8683 49.6339 49.6339C49.8683 49.3995 50 49.0815 50 48.75V38.75C50 38.087 49.7366 37.4511 49.2678 36.9822C48.7989 36.5134 48.163 36.25 47.5 36.25Z" fill="#DA582D"/>
<path d="M37.5 25C37.9237 25 40.1038 25.1663 41.4325 28.44C41.6988 29.0937 43.9275 34.6762 43.9275 34.6775L44.5563 36.25H15.445L16.0725 34.6737C16.825 32.7825 18.3125 29.05 18.5562 28.4613C19.8962 25.2488 21.9138 25 22.5 25H37.5ZM37.5038 22.5H37.5H22.5C22.09 22.5 18.3338 22.5 16.25 27.5C15.9325 28.2625 13.75 33.75 13.75 33.75H8.75C8.58585 33.75 8.4233 33.7823 8.27165 33.8451C8.11999 33.908 7.98219 34 7.86612 34.1161C7.75004 34.2322 7.65797 34.37 7.59515 34.5216C7.53233 34.6733 7.5 34.8358 7.5 35V37.5C7.5 37.6642 7.53233 37.8267 7.59515 37.9784C7.65797 38.13 7.75004 38.2678 7.86612 38.3839C7.98219 38.5 8.11999 38.592 8.27165 38.6548C8.4233 38.7177 8.58585 38.75 8.75 38.75H51.25C51.5815 38.75 51.8995 38.6183 52.1339 38.3839C52.3683 38.1495 52.5 37.8315 52.5 37.5V35C52.5 34.6685 52.3683 34.3505 52.1339 34.1161C51.8995 33.8817 51.5815 33.75 51.25 33.75H46.25C46.25 33.75 44.0163 28.155 43.75 27.5C41.7188 22.5 37.8775 22.5 37.5 22.5H37.4925H37.5038Z" fill="#DA582D"/>
<path d="M47.5 43.75C47.5 43.9142 47.4677 44.0767 47.4049 44.2284C47.342 44.38 47.25 44.5178 47.1339 44.6339C47.0178 44.75 46.88 44.842 46.7284 44.9049C46.5767 44.9677 46.4142 45 46.25 45H13.75C13.5858 45 13.4233 44.9677 13.2716 44.9049C13.12 44.842 12.9822 44.75 12.8661 44.6339C12.75 44.5178 12.658 44.38 12.5952 44.2284C12.5323 44.0767 12.5 43.9142 12.5 43.75V40C12.5 39.8359 12.5323 39.6733 12.5952 39.5216C12.658 39.37 12.75 39.2322 12.8661 39.1161C12.9822 39 13.12 38.908 13.2716 38.8452C13.4233 38.7823 13.5858 38.75 13.75 38.75H46.25C46.4142 38.75 46.5767 38.7823 46.7284 38.8452C46.88 38.908 47.0178 39 47.1339 39.1161C47.25 39.2322 47.342 39.37 47.4049 39.5216C47.4677 39.6733 47.5 39.8359 47.5 40V43.75Z" fill="#37474F"/>
<path d="M13.75 41.875C13.75 42.3723 13.9475 42.8492 14.2992 43.2008C14.6508 43.5525 15.1277 43.75 15.625 43.75C16.1223 43.75 16.5992 43.5525 16.9508 43.2008C17.3025 42.8492 17.5 42.3723 17.5 41.875C17.5 41.3777 17.3025 40.9008 16.9508 40.5492C16.5992 40.1975 16.1223 40 15.625 40C15.1277 40 14.6508 40.1975 14.2992 40.5492C13.9475 40.9008 13.75 41.3777 13.75 41.875Z" fill="#FFF176"/>
<path d="M42.5 41.875C42.5 42.3723 42.6975 42.8492 43.0492 43.2008C43.4008 43.5525 43.8777 43.75 44.375 43.75C44.8723 43.75 45.3492 43.5525 45.7008 43.2008C46.0525 42.8492 46.25 42.3723 46.25 41.875C46.25 41.3777 46.0525 40.9008 45.7008 40.5492C45.3492 40.1975 44.8723 40 44.375 40C43.8777 40 43.4008 40.1975 43.0492 40.5492C42.6975 40.9008 42.5 41.3777 42.5 41.875Z" fill="#FFF176"/>
<path d="M41.25 13.75H25V8.75H31.25V11.25L33.75 8.75H36.25V11.25L38.75 8.75H41.25L43.75 9.9975V12.5L41.25 13.75Z" fill="#DA582D"/>
<path d="M22.5 5C19.0475 5 16.25 7.7975 16.25 11.25C16.25 14.7025 19.0475 17.5 22.5 17.5C25.9525 17.5 28.75 14.7025 28.75 11.25C28.75 7.7975 25.9525 5 22.5 5ZM20 12.5C19.6685 12.5 19.3505 12.3683 19.1161 12.1339C18.8817 11.8995 18.75 11.5815 18.75 11.25C18.75 10.9185 18.8817 10.6005 19.1161 10.3661C19.3505 10.1317 19.6685 10 20 10C20.3315 10 20.6495 10.1317 20.8839 10.3661C21.1183 10.6005 21.25 10.9185 21.25 11.25C21.25 11.5815 21.1183 11.8995 20.8839 12.1339C20.6495 12.3683 20.3315 12.5 20 12.5Z" fill="#DA582D"/>
<path d="M31.25 13.75V8.75H28.2225C28.5697 9.53773 28.749 10.3891 28.749 11.25C28.749 12.1109 28.5697 12.9623 28.2225 13.75H31.25Z" fill="#D67C05"/>
</svg>
