<svg width="60" height="60" viewBox="0 0 60 60" fill="none" xmlns="http://www.w3.org/2000/svg">
<g clip-path="url(#clip0_102_4)">
<path d="M29.9998 60C24.0664 60 18.2661 58.2405 13.3327 54.9441C8.3992 51.6476 4.55401 46.9623 2.28338 41.4805C0.0127544 35.9987 -0.581346 29.9667 0.576211 24.1473C1.73377 18.3279 4.59099 12.9824 8.78656 8.78682C12.9821 4.59125 18.3276 1.73401 24.1471 0.57645C29.9665 -0.581106 35.9985 0.0130127 41.4803 2.28364C46.9621 4.55427 51.6474 8.39944 54.9439 13.3329C58.2403 18.2664 59.9998 24.0666 59.9998 30C59.9764 37.9493 56.8081 45.5663 51.1871 51.1873C45.5661 56.8084 37.9491 59.9766 29.9998 60ZM29.9998 2.50001C24.5608 2.50001 19.2439 4.11286 14.7216 7.1346C10.1992 10.1563 6.6745 14.4512 4.59309 19.4762C2.51168 24.5012 1.96709 30.0305 3.02818 35.365C4.08928 40.6995 6.70839 45.5995 10.5543 49.4454C14.4003 53.2914 19.3003 55.9105 24.6348 56.9716C29.9693 58.0327 35.4986 57.4881 40.5236 55.4067C45.5486 53.3253 49.8435 49.8005 52.8652 45.2782C55.8869 40.7558 57.4998 35.439 57.4998 30C57.4784 22.7132 54.5741 15.7309 49.4215 10.5782C44.2689 5.42563 37.2867 2.52145 29.9998 2.50001ZM29.9998 50.375C25.9947 50.375 22.0796 49.1874 18.7495 46.9623C15.4194 44.7372 12.8239 41.5746 11.2912 37.8743C9.75854 34.1741 9.35752 30.1026 10.1389 26.1744C10.9202 22.2463 12.8489 18.6381 15.6809 15.8061C18.5129 12.9741 22.1211 11.0455 26.0492 10.2641C29.9773 9.48275 34.0489 9.88377 37.7491 11.4164C41.4493 12.9491 44.6119 15.5446 46.837 18.8747C49.0621 22.2048 50.2498 26.1199 50.2498 30.125C50.2228 35.4873 48.0807 40.6224 44.2889 44.4141C40.4971 48.2059 35.3621 50.3481 29.9998 50.375ZM29.9998 12.25C26.4892 12.25 23.0574 13.291 20.1384 15.2414C17.2194 17.1918 14.9444 19.964 13.6009 23.2074C12.2575 26.4508 11.9059 30.0197 12.5908 33.4629C13.2757 36.906 14.9663 40.0688 17.4486 42.5512C19.931 45.0335 23.0938 46.7241 26.5369 47.409C29.9801 48.0938 33.549 47.7423 36.7924 46.3989C40.0358 45.0554 42.808 42.7804 44.7584 39.8614C46.7088 36.9424 47.7498 33.5106 47.7498 30C47.7619 27.6657 47.311 25.3521 46.4233 23.1931C45.5355 21.0341 44.2285 19.0725 42.5779 17.4219C40.9272 15.7712 38.9657 14.4643 36.8067 13.5765C34.6477 12.6888 32.3341 12.2379 29.9998 12.25Z" fill="#DA582D"/>
<path d="M18.125 3.87502L22 12.75C22 12.75 30.25 8.50001 38.625 13.125L43 4.50002C39.1646 2.54174 34.9386 1.469 30.6335 1.36083C26.3284 1.25266 22.0539 2.11182 18.125 3.87502Z" fill="#DA582D"/>
<path d="M10.875 31L1.25 31.5C1.52205 35.8035 2.73821 39.9943 4.81213 43.7748C6.88604 47.5554 9.76685 50.8331 13.25 53.375L19 45.625C16.6384 43.9498 14.6826 41.7663 13.2765 39.2353C11.8704 36.7043 11.0497 33.8901 10.875 31Z" fill="#DA582D"/>
<path d="M49 31.75C49 31.75 48.5 41 40.375 46L45.625 54.125C49.2273 51.7635 52.2615 48.6329 54.5093 44.9586C56.7571 41.2843 58.1627 37.1575 58.625 32.875L49 31.75Z" fill="#DA582D"/>
</g>
<defs>
<clipPath id="clip0_102_4">
<rect width="60" height="60" fill="white"/>
</clipPath>
</defs>
</svg>
