<svg width="70" height="70" viewBox="0 0 70 70" fill="none" xmlns="http://www.w3.org/2000/svg">
<circle opacity="0.1" cx="35" cy="35" r="35" fill="#DA582D"/>
<path d="M29.8889 37.6667C29.3366 37.6667 28.8889 38.1144 28.8889 38.6667C28.8889 39.219 29.3366 39.6667 29.8889 39.6667V37.6667ZM32.3333 39.6667C32.8856 39.6667 33.3333 39.219 33.3333 38.6667C33.3333 38.1144 32.8856 37.6667 32.3333 37.6667V39.6667ZM29.8889 32.7778C29.3366 32.7778 28.8889 33.2255 28.8889 33.7778C28.8889 34.3301 29.3366 34.7778 29.8889 34.7778V32.7778ZM37.2222 34.7778C37.7745 34.7778 38.2222 34.3301 38.2222 33.7778C38.2222 33.2255 37.7745 32.7778 37.2222 32.7778V34.7778ZM29.8889 27.8889C29.3366 27.8889 28.8889 28.3366 28.8889 28.8889C28.8889 29.4412 29.3366 29.8889 29.8889 29.8889V27.8889ZM37.2222 29.8889C37.7745 29.8889 38.2222 29.4412 38.2222 28.8889C38.2222 28.3366 37.7745 27.8889 37.2222 27.8889V29.8889ZM41.1111 35.6111C41.1111 36.1634 41.5588 36.6111 42.1111 36.6111C42.6634 36.6111 43.1111 36.1634 43.1111 35.6111H41.1111ZM32.3333 47C32.8856 47 33.3333 46.5523 33.3333 46C33.3333 45.4477 32.8856 45 32.3333 45V47ZM26.3176 45.7248L26.7786 44.8374H26.7786L26.3176 45.7248ZM25.2752 44.6824L24.3878 45.1434H24.3878L25.2752 44.6824ZM40.7935 24.2752L40.3325 25.1626L40.3325 25.1626L40.7935 24.2752ZM41.8359 25.3176L40.9485 25.7786L40.9485 25.7786L41.8359 25.3176ZM26.3176 24.2752L25.8566 23.3878L26.3176 24.2752ZM25.2752 25.3176L24.3878 24.8566L25.2752 25.3176ZM45.2627 41.8182C45.6532 41.4277 45.6532 40.7945 45.2627 40.404C44.8721 40.0135 44.239 40.0135 43.8484 40.404L45.2627 41.8182ZM39.2345 45.5679L38.5274 46.275L38.5274 46.275L39.2345 45.5679ZM37.9293 42.8484C37.5388 42.4579 36.9056 42.4579 36.5151 42.8484C36.1246 43.239 36.1246 43.8721 36.5151 44.2627L37.9293 42.8484ZM29.8889 39.6667H32.3333V37.6667H29.8889V39.6667ZM29.8889 34.7778H37.2222V32.7778H29.8889V34.7778ZM29.8889 29.8889H37.2222V27.8889H29.8889V29.8889ZM28.9356 25H38.1756V23H28.9356V25ZM41.1111 27.9356V35.6111H43.1111V27.9356H41.1111ZM32.3333 45H28.9356V47H32.3333V45ZM26 42.0644V27.9356H24V42.0644H26ZM28.9356 45C28.2227 45 27.7493 44.9992 27.386 44.969C27.0347 44.9399 26.877 44.8885 26.7786 44.8374L25.8566 46.6122C26.2881 46.8363 26.7433 46.9225 27.2205 46.9622C27.6857 47.0008 28.2563 47 28.9356 47V45ZM24 42.0644C24 42.7437 23.9992 43.3143 24.0378 43.7795C24.0775 44.2567 24.1637 44.7119 24.3878 45.1434L26.1626 44.2214C26.1115 44.123 26.0601 43.9653 26.031 43.614C26.0008 43.2507 26 42.7773 26 42.0644H24ZM26.7786 44.8374C26.5148 44.7003 26.2997 44.4852 26.1626 44.2214L24.3878 45.1434C24.7146 45.7725 25.2275 46.2854 25.8566 46.6122L26.7786 44.8374ZM38.1756 25C38.8884 25 39.3619 25.0008 39.7251 25.031C40.0764 25.0601 40.2341 25.1115 40.3325 25.1626L41.2545 23.3878C40.823 23.1637 40.3678 23.0775 39.8906 23.0378C39.4254 22.9992 38.8548 23 38.1756 23V25ZM43.1111 27.9356C43.1111 27.2563 43.1119 26.6857 43.0733 26.2205C43.0336 25.7433 42.9474 25.2881 42.7233 24.8566L40.9485 25.7786C40.9996 25.877 41.051 26.0347 41.0801 26.386C41.1103 26.7493 41.1111 27.2227 41.1111 27.9356H43.1111ZM40.3325 25.1626C40.5963 25.2997 40.8114 25.5148 40.9485 25.7786L42.7233 24.8566C42.3965 24.2275 41.8836 23.7146 41.2545 23.3878L40.3325 25.1626ZM28.9356 23C28.2563 23 27.6857 22.9992 27.2205 23.0378C26.7433 23.0775 26.2881 23.1637 25.8566 23.3878L26.7786 25.1626C26.877 25.1115 27.0347 25.0601 27.386 25.031C27.7493 25.0008 28.2227 25 28.9356 25V23ZM26 27.9356C26 27.2227 26.0008 26.7493 26.031 26.386C26.0601 26.0347 26.1115 25.877 26.1626 25.7786L24.3878 24.8566C24.1637 25.2881 24.0775 25.7433 24.0378 26.2205C23.9992 26.6857 24 27.2563 24 27.9356H26ZM25.8566 23.3878C25.2275 23.7146 24.7146 24.2275 24.3878 24.8566L26.1626 25.7786C26.2997 25.5148 26.5148 25.2997 26.7786 25.1626L25.8566 23.3878ZM40.8059 46.275L45.2627 41.8182L43.8484 40.404L39.3917 44.8608L40.8059 46.275ZM39.9417 44.8608L37.9293 42.8484L36.5151 44.2627L38.5274 46.275L39.9417 44.8608ZM39.3917 44.8608C39.5436 44.7089 39.7898 44.7089 39.9417 44.8608L38.5274 46.275C39.1566 46.9042 40.1767 46.9042 40.8059 46.275L39.3917 44.8608Z" fill="#DA582D"/>
</svg>
