<svg width="70" height="70" viewBox="0 0 70 70" fill="none" xmlns="http://www.w3.org/2000/svg">
<circle opacity="0.1" cx="35" cy="35" r="35" fill="#DA582D"/>
<path d="M38.2445 30.6788L33.948 35.0082C33.785 35.1725 33.5207 35.1725 33.3577 35.0082L31.5657 33.2025M28.2263 24H41.5839C42.8135 24 43.8102 24.9967 43.8102 26.2263V42.6606C43.8102 44.3156 42.0686 45.392 40.5883 44.6518L40.3533 44.5343C39.7265 44.2209 38.9888 44.2209 38.362 44.5343L35.9007 45.765C35.274 46.0783 34.5362 46.0783 33.9095 45.765L31.4482 44.5343C30.8214 44.2209 30.0837 44.2209 29.4569 44.5343L29.2219 44.6518C27.7416 45.392 26 44.3156 26 42.6606V26.2263C26 24.9967 26.9967 24 28.2263 24Z" stroke="#DA582D" stroke-width="2" stroke-linecap="round"/>
</svg>
