<svg width="70" height="70" viewBox="0 0 70 70" fill="none" xmlns="http://www.w3.org/2000/svg">
<circle opacity="0.1" cx="35" cy="35" r="35" fill="#DA582D"/>
<path d="M35 47C35.5523 47 36 46.5523 36 46C36 45.4477 35.5523 45 35 45V47ZM45 35C45 35.5523 45.4477 36 46 36C46.5523 36 47 35.5523 47 35H45ZM24.271 32.0266C23.7334 32.1531 23.4001 32.6915 23.5266 33.2291C23.6531 33.7667 24.1914 34.0999 24.729 33.9734L24.271 32.0266ZM31 35.5L31.9487 35.8162L31 35.5ZM30.1056 44.5528C29.8586 45.0468 30.0588 45.6474 30.5528 45.8944C31.0468 46.1414 31.6474 45.9412 31.8944 45.4472L30.1056 44.5528ZM27.7831 26.0238C27.2439 26.1436 26.904 26.6778 27.0238 27.2169C27.1436 27.7561 27.6778 28.096 28.2169 27.9762L27.7831 26.0238ZM35 28L34.3753 28.7809L35 28ZM44.4961 29.8683C44.9757 29.5942 45.1423 28.9834 44.8682 28.5039C44.5942 28.0244 43.9834 27.8578 43.5039 28.1318L44.4961 29.8683ZM45.2929 46.7071C45.6834 47.0976 46.3166 47.0976 46.7071 46.7071C47.0976 46.3166 47.0976 45.6834 46.7071 45.2929L45.2929 46.7071ZM35 45C29.4772 45 25 40.5228 25 35H23C23 41.6274 28.3726 47 35 47V45ZM25 35C25 29.4772 29.4772 25 35 25V23C28.3726 23 23 28.3726 23 35H25ZM35 25C40.5228 25 45 29.4772 45 35H47C47 28.3726 41.6274 23 35 23V25ZM24.729 33.9734C26.1159 33.6471 27.8738 33.4139 29.0836 33.6339C29.6919 33.7445 29.9714 33.9355 30.0809 34.0859C30.1553 34.188 30.2913 34.4639 30.0513 35.1838L31.9487 35.8162C32.3087 34.7361 32.2863 33.7162 31.6972 32.9079C31.1432 32.1478 30.2539 31.8139 29.4414 31.6661C27.8095 31.3694 25.7174 31.6863 24.271 32.0266L24.729 33.9734ZM30.0513 35.1838C29.6777 36.3046 29.417 37.1168 29.2588 37.7247C29.1041 38.319 29.0162 38.8263 29.0686 39.2979C29.1261 39.8156 29.3406 40.1792 29.5235 40.4666C29.7049 40.7516 29.8851 41.0062 30.1056 41.4472L31.8944 40.5528C31.6149 39.9938 31.3576 39.6234 31.2108 39.3928C31.0656 39.1646 31.0614 39.1219 31.0564 39.0771C31.0463 38.9862 31.0521 38.7747 31.1943 38.2284C31.333 37.6957 31.5723 36.9454 31.9487 35.8162L30.0513 35.1838ZM30.1056 41.4472C30.7151 42.6663 30.3566 44.0507 30.1056 44.5528L31.8944 45.4472C32.31 44.616 32.8849 42.5337 31.8944 40.5528L30.1056 41.4472ZM28.2169 27.9762C28.8831 27.8282 30.0363 27.6883 31.2428 27.7726C32.4672 27.8581 33.6048 28.1644 34.3753 28.7809L35.6247 27.2191C34.3952 26.2356 32.7828 25.8753 31.3822 25.7774C29.9637 25.6784 28.6169 25.8385 27.7831 26.0238L28.2169 27.9762ZM34.3753 28.7809C34.9024 29.2025 35.2687 29.6718 35.7064 30.2003C36.1132 30.6916 36.6297 31.2986 37.3867 31.6548C38.1888 32.0323 39.1131 32.0698 40.2402 31.7813C41.3454 31.4983 42.7177 30.8845 44.4961 29.8683L43.5039 28.1318C41.7823 29.1155 40.5921 29.6267 39.7442 29.8437C38.9182 30.0552 38.4987 29.9677 38.2383 29.8452C37.9328 29.7014 37.6681 29.4334 37.2468 28.9247C36.8563 28.4532 36.3476 27.7975 35.6247 27.2191L34.3753 28.7809ZM43.2353 40.1176C43.2353 41.8395 41.8395 43.2353 40.1176 43.2353V45.2353C42.944 45.2353 45.2353 42.944 45.2353 40.1176H43.2353ZM40.1176 43.2353C38.3958 43.2353 37 41.8395 37 40.1176H35C35 42.944 37.2912 45.2353 40.1176 45.2353V43.2353ZM37 40.1176C37 38.3958 38.3958 37 40.1176 37V35C37.2912 35 35 37.2912 35 40.1176H37ZM40.1176 37C41.8395 37 43.2353 38.3958 43.2353 40.1176H45.2353C45.2353 37.2912 42.944 35 40.1176 35V37ZM42.3517 43.7659L45.2929 46.7071L46.7071 45.2929L43.7659 42.3517L42.3517 43.7659Z" fill="#DA582D"/>
</svg>
