<svg width="70" height="70" viewBox="0 0 70 70" fill="none" xmlns="http://www.w3.org/2000/svg">
<circle opacity="0.1" cx="35" cy="35" r="35" fill="#DA582D"/>
<path d="M31.0051 38.1949C31.5444 38.0757 31.885 37.542 31.7659 37.0027C31.6468 36.4634 31.113 36.1228 30.5737 36.2419L31.0051 38.1949ZM44.8419 41.3685C44.8419 41.6826 44.7028 42.0571 44.2985 42.4819C43.8894 42.9118 43.25 43.3445 42.3835 43.7296C40.653 44.4988 38.1922 45 35.4209 45V47C38.405 47 41.1547 46.4644 43.1958 45.5573C44.2151 45.1043 45.1018 44.5389 45.7473 43.8607C46.3977 43.1772 46.8419 42.3333 46.8419 41.3685H44.8419ZM35.4209 45C32.6497 45 30.1889 44.4988 28.4584 43.7296C27.5918 43.3445 26.9525 42.9118 26.5433 42.4819C26.1391 42.0571 26 41.6826 26 41.3685H24C24 42.3333 24.4441 43.1772 25.0945 43.8607C25.74 44.5389 26.6268 45.1043 27.6461 45.5573C29.6872 46.4644 32.4368 47 35.4209 47V45ZM26 41.3685C26 40.927 26.2884 40.3423 27.1828 39.714C28.0594 39.0981 29.3709 38.5558 31.0051 38.1949L30.5737 36.2419C28.7766 36.6389 27.1934 37.2623 26.0331 38.0774C24.8906 38.8801 24 39.9915 24 41.3685H26ZM39.8368 38.1949C41.4709 38.5558 42.7824 39.0981 43.659 39.714C44.5534 40.3423 44.8419 40.927 44.8419 41.3685H46.8419C46.8419 39.9915 45.9512 38.8801 44.8087 38.0774C43.6485 37.2623 42.0653 36.6389 40.2681 36.2419L39.8368 38.1949ZM36.4209 41.3682V30.9474H34.4209V41.3682H36.4209ZM37.8946 27.4736C37.8946 28.8398 36.787 29.9474 35.4209 29.9474V31.9474C37.8917 31.9474 39.8946 29.9443 39.8946 27.4736H37.8946ZM35.4209 29.9474C34.0548 29.9474 32.9473 28.8398 32.9473 27.4736H30.9473C30.9473 29.9443 32.9502 31.9474 35.4209 31.9474V29.9474ZM32.9473 27.4736C32.9473 26.1075 34.0548 25 35.4209 25V23C32.9502 23 30.9473 25.0029 30.9473 27.4736H32.9473ZM35.4209 25C36.7871 25 37.8946 26.1075 37.8946 27.4736H39.8946C39.8946 25.0029 37.8917 23 35.4209 23V25Z" fill="#DA582D"/>
</svg>
