<svg width="70" height="70" viewBox="0 0 70 70" fill="none" xmlns="http://www.w3.org/2000/svg">
<circle opacity="0.1" cx="35" cy="35" r="35" fill="#DA582D"/>
<path d="M44.8205 43.4092L45.7906 43.1667L44.8205 43.4092ZM44.5599 42.3667L43.5897 42.6092L43.5897 42.6092L44.5599 42.3667ZM25.5259 42.3667L24.5557 42.1242H24.5557L25.5259 42.3667ZM25.2652 43.4092L26.2354 43.6518L25.2652 43.4092ZM26.4334 40.8891L26.0461 39.9671H26.0461L26.4334 40.8891ZM25.895 41.3094L26.6955 41.9088H26.6955L25.895 41.3094ZM44.1907 41.3094L43.3902 41.9088L44.1907 41.3094ZM43.6523 40.8891L44.0397 39.9671H44.0397L43.6523 40.8891ZM44.4744 45.8114L43.9562 44.9561H43.9562L44.4744 45.8114ZM45.0442 45.0816L45.9996 45.3769V45.3769L45.0442 45.0816ZM25.6113 45.8114L26.1295 44.9561H26.1295L25.6113 45.8114ZM25.0415 45.0816L25.997 44.7864H25.997L25.0415 45.0816ZM34.1104 24.3124L33.6632 23.418V23.418L34.1104 24.3124ZM26.4825 28.1264L26.9297 29.0208L26.4825 28.1264ZM25.55 30.9238L24.6556 31.371H24.6556L25.55 30.9238ZM25.7766 31.377L26.6711 30.9298L26.6711 30.9298L25.7766 31.377ZM44.3091 31.377L43.4147 30.9298V30.9298L44.3091 31.377ZM44.5357 30.9238L43.6413 30.4766V30.4766L44.5357 30.9238ZM43.6033 28.1264L44.0505 27.2319V27.2319L43.6033 28.1264ZM35.9753 24.3124L36.4226 23.418V23.418L35.9753 24.3124ZM45.0229 29.6317L46.0229 29.6242L45.0229 29.6317ZM44.7683 28.8677L43.9637 29.4616L43.9637 29.4616L44.7683 28.8677ZM25.3175 28.8677L24.513 28.2738H24.513L25.3175 28.8677ZM25.0628 29.6317L24.0628 29.6242L25.0628 29.6317ZM44.0699 31.6474L43.7438 30.702L43.7438 30.702L44.0699 31.6474ZM44.1916 31.5721L44.8914 32.2866L44.8914 32.2866L44.1916 31.5721ZM26.0158 31.6474L26.3419 30.702H26.3419L26.0158 31.6474ZM25.8941 31.5721L25.1944 32.2866L25.1944 32.2866L25.8941 31.5721ZM34.8026 24.0223L34.6182 23.0395L34.8026 24.0223ZM35.2832 24.0223L35.4676 23.0395L35.2832 24.0223ZM27.527 39.4842C27.527 40.0365 27.9748 40.4842 28.527 40.4842C29.0793 40.4842 29.527 40.0365 29.527 39.4842H27.527ZM29.527 31.6652C29.527 31.1129 29.0793 30.6652 28.527 30.6652C27.9748 30.6652 27.527 31.1129 27.527 31.6652H29.527ZM34.0429 39.4842C34.0429 40.0365 34.4906 40.4842 35.0429 40.4842C35.5952 40.4842 36.0429 40.0365 36.0429 39.4842H34.0429ZM36.0429 32.9683C36.0429 32.4161 35.5952 31.9683 35.0429 31.9683C34.4906 31.9683 34.0429 32.4161 34.0429 32.9683H36.0429ZM40.5587 39.4842C40.5587 40.0365 41.0064 40.4842 41.5587 40.4842C42.111 40.4842 42.5587 40.0365 42.5587 39.4842H40.5587ZM42.5587 32.9683C42.5587 32.4161 42.111 31.9683 41.5587 31.9683C41.0064 31.9683 40.5587 32.4161 40.5587 32.9683H42.5587ZM27.288 47H42.7977V45H27.288V47ZM45.7906 43.1667L45.53 42.1242L43.5897 42.6092L43.8504 43.6518L45.7906 43.1667ZM42.5371 39.7873H27.5487V41.7873H42.5371V39.7873ZM24.5557 42.1242L24.2951 43.1667L26.2354 43.6518L26.496 42.6092L24.5557 42.1242ZM27.5487 39.7873C27.0594 39.7873 26.5194 39.7683 26.0461 39.9671L26.8208 41.811C26.803 41.8185 26.8169 41.806 26.9357 41.7974C27.0671 41.7879 27.2434 41.7873 27.5487 41.7873V39.7873ZM26.496 42.6092C26.5701 42.313 26.6134 42.1422 26.6545 42.017C26.6916 41.9038 26.707 41.8934 26.6955 41.9088L25.0946 40.71C24.7869 41.121 24.6744 41.6495 24.5557 42.1242L26.496 42.6092ZM26.0461 39.9671C25.6685 40.1258 25.3401 40.3822 25.0946 40.71L26.6955 41.9088C26.7278 41.8656 26.7711 41.8319 26.8208 41.811L26.0461 39.9671ZM45.53 42.1242C45.4114 41.6495 45.2989 41.121 44.9912 40.71L43.3902 41.9088C43.3787 41.8934 43.3941 41.9038 43.4313 42.017C43.4723 42.1422 43.5157 42.313 43.5897 42.6092L45.53 42.1242ZM42.5371 41.7873C42.8424 41.7873 43.0186 41.7879 43.15 41.7974C43.2688 41.806 43.2827 41.8185 43.265 41.811L44.0397 39.9671C43.5663 39.7683 43.0263 39.7873 42.5371 39.7873V41.7873ZM44.9912 40.71C44.7457 40.3822 44.4172 40.1258 44.0397 39.9671L43.265 41.811C43.3147 41.8319 43.3579 41.8656 43.3902 41.9088L44.9912 40.71ZM42.7977 47C43.2345 47 43.6279 47.0009 43.9488 46.9725C44.2771 46.9435 44.6461 46.8766 44.9926 46.6667L43.9562 44.9561C43.9914 44.9348 43.9772 44.9622 43.7725 44.9803C43.5604 44.9991 43.2712 45 42.7977 45V47ZM43.8504 43.6518C43.9652 44.1111 44.0345 44.392 44.0677 44.6023C44.0998 44.8052 44.0766 44.8257 44.0888 44.7864L45.9996 45.3769C46.1192 44.9898 46.0946 44.6157 46.0432 44.2901C45.9929 43.9719 45.8966 43.5904 45.7906 43.1667L43.8504 43.6518ZM44.9926 46.6667C45.4748 46.3745 45.8331 45.9156 45.9996 45.3769L44.0888 44.7864C44.0669 44.8573 44.0197 44.9177 43.9562 44.9561L44.9926 46.6667ZM27.288 45C26.8146 45 26.5253 44.9991 26.3132 44.9803C26.1085 44.9622 26.0943 44.9348 26.1295 44.9561L25.0931 46.6667C25.4396 46.8766 25.8086 46.9435 26.1369 46.9725C26.4578 47.0009 26.8513 47 27.288 47V45ZM24.2951 43.1667C24.1892 43.5904 24.0928 43.9719 24.0426 44.2901C23.9911 44.6157 23.9665 44.9898 24.0861 45.3769L25.997 44.7864C26.0091 44.8257 25.986 44.8052 26.018 44.6023C26.0513 44.392 26.1205 44.1111 26.2354 43.6518L24.2951 43.1667ZM26.1295 44.9561C26.066 44.9177 26.0189 44.8573 25.997 44.7864L24.0861 45.3769C24.2526 45.9156 24.6109 46.3745 25.0931 46.6667L26.1295 44.9561ZM26.2429 32.6652H43.8429V30.6652H26.2429V32.6652ZM33.6632 23.418L26.0353 27.2319L26.9297 29.0208L34.5576 25.2068L33.6632 23.418ZM24.6556 31.371L24.8822 31.8242L26.6711 30.9298L26.4444 30.4766L24.6556 31.371ZM45.2035 31.8242L45.4302 31.371L43.6413 30.4766L43.4147 30.9298L45.2035 31.8242ZM44.0505 27.2319L36.4226 23.418L35.5281 25.2068L43.156 29.0208L44.0505 27.2319ZM45.4302 31.371C45.586 31.0594 45.7304 30.7722 45.8305 30.5232C45.9349 30.2633 46.0255 29.9652 46.0229 29.6242L44.023 29.6393C44.0228 29.6112 44.0329 29.6327 43.9747 29.7774C43.9122 29.933 43.8119 30.1354 43.6413 30.4766L45.4302 31.371ZM43.156 29.0208C43.4972 29.1914 43.6989 29.2931 43.8423 29.3801C43.9757 29.461 43.9804 29.4842 43.9637 29.4616L45.5728 28.2738C45.3702 27.9994 45.1189 27.8152 44.8794 27.67C44.65 27.5308 44.3621 27.3878 44.0505 27.2319L43.156 29.0208ZM46.0229 29.6242C46.0192 29.1378 45.8617 28.6651 45.5728 28.2738L43.9637 29.4616C44.0017 29.5131 44.0225 29.5753 44.023 29.6393L46.0229 29.6242ZM26.0353 27.2319C25.7236 27.3878 25.4358 27.5308 25.2063 27.67C24.9668 27.8152 24.7155 27.9994 24.513 28.2738L26.122 29.4616C26.1053 29.4842 26.1101 29.461 26.2434 29.3801C26.3868 29.2931 26.5885 29.1914 26.9297 29.0208L26.0353 27.2319ZM26.4444 30.4766C26.2739 30.1354 26.1735 29.933 26.111 29.7774C26.0528 29.6327 26.063 29.6112 26.0628 29.6393L24.0628 29.6242C24.0602 29.9652 24.1508 30.2633 24.2552 30.5232C24.3553 30.7722 24.4998 31.0594 24.6556 31.371L26.4444 30.4766ZM24.513 28.2738C24.2241 28.6651 24.0665 29.1378 24.0628 29.6242L26.0628 29.6393C26.0632 29.5753 26.084 29.5131 26.122 29.4616L24.513 28.2738ZM43.8429 32.6652C43.8873 32.6652 44.1481 32.6782 44.396 32.5927L43.7438 30.702C43.8341 30.6709 43.9043 30.6658 43.9186 30.6649C43.9246 30.6645 43.9234 30.6648 43.9082 30.665C43.8928 30.6652 43.8739 30.6652 43.8429 30.6652V32.6652ZM43.4147 30.9298C43.4008 30.9575 43.3923 30.9745 43.3853 30.9881C43.3783 31.0016 43.3775 31.0026 43.3805 30.9975C43.3878 30.985 43.4237 30.9245 43.4919 30.8577L44.8914 32.2866C45.0787 32.1031 45.1836 31.864 45.2035 31.8242L43.4147 30.9298ZM44.396 32.5927C44.5818 32.5286 44.751 32.4241 44.8914 32.2866L43.4919 30.8577C43.5633 30.7878 43.6494 30.7346 43.7438 30.702L44.396 32.5927ZM26.2429 30.6652C26.2119 30.6652 26.1929 30.6652 26.1776 30.665C26.1624 30.6648 26.1611 30.6645 26.1671 30.6649C26.1815 30.6658 26.2516 30.6709 26.3419 30.702L25.6898 32.5927C25.9377 32.6782 26.1984 32.6652 26.2429 32.6652V30.6652ZM24.8822 31.8242C24.9021 31.864 25.007 32.1031 25.1944 32.2866L26.5938 30.8577C26.662 30.9245 26.698 30.985 26.7052 30.9975C26.7082 31.0026 26.7074 31.0016 26.7005 30.9881C26.6934 30.9745 26.6849 30.9575 26.6711 30.9298L24.8822 31.8242ZM26.3419 30.702C26.4364 30.7346 26.5224 30.7878 26.5938 30.8577L25.1944 32.2866C25.3348 32.4241 25.504 32.5286 25.6898 32.5927L26.3419 30.702ZM34.5576 25.2068C34.7377 25.1168 34.8386 25.0667 34.9164 25.0329C34.9847 25.0032 34.9969 25.0033 34.987 25.0052L34.6182 23.0395C34.2689 23.105 33.9532 23.273 33.6632 23.418L34.5576 25.2068ZM36.4226 23.418C36.1325 23.273 35.8168 23.105 35.4676 23.0395L35.0988 25.0052C35.0889 25.0033 35.1011 25.0032 35.1693 25.0329C35.2472 25.0667 35.348 25.1168 35.5281 25.2068L36.4226 23.418ZM34.987 25.0052C35.0239 24.9983 35.0618 24.9983 35.0988 25.0052L35.4676 23.0395C35.1869 22.9868 34.8989 22.9868 34.6182 23.0395L34.987 25.0052ZM29.527 39.4842V31.6652H27.527V39.4842H29.527ZM36.0429 39.4842V32.9683H34.0429V39.4842H36.0429ZM42.5587 39.4842V32.9683H40.5587V39.4842H42.5587Z" fill="#DA582D"/>
</svg>
