<svg width="70" height="70" viewBox="0 0 70 70" fill="none" xmlns="http://www.w3.org/2000/svg">
<circle opacity="0.1" cx="35" cy="35" r="35" fill="#DA582D"/>
<path d="M33.7778 26.4444L46 26.4444M33.7778 35L46 35M33.7778 43.5556H46M28.8889 35C28.8889 36.35 27.7945 37.4444 26.4444 37.4444C25.0944 37.4444 24 36.35 24 35C24 33.65 25.0944 32.5556 26.4444 32.5556C27.7945 32.5556 28.8889 33.65 28.8889 35ZM28.8889 26.4444C28.8889 27.7945 27.7945 28.8889 26.4444 28.8889C25.0944 28.8889 24 27.7945 24 26.4444C24 25.0944 25.0944 24 26.4444 24C27.7945 24 28.8889 25.0944 28.8889 26.4444ZM28.8889 43.5556C28.8889 44.9056 27.7945 46 26.4444 46C25.0944 46 24 44.9056 24 43.5556C24 42.2055 25.0944 41.1111 26.4444 41.1111C27.7945 41.1111 28.8889 42.2055 28.8889 43.5556Z" stroke="#DA582D" stroke-width="2" stroke-linecap="round"/>
</svg>
