<svg width="60" height="60" viewBox="0 0 60 60" fill="none" xmlns="http://www.w3.org/2000/svg">
<g clip-path="url(#clip0_24_3)">
<path d="M30 60C21.9867 60 14.4531 56.8794 8.78672 51.2133C3.12058 45.5469 0 38.0133 0 30C0 21.9867 3.12058 14.4531 8.78672 8.78672C14.4531 3.12058 21.9867 0 30 0C38.0133 0 45.5469 3.12058 51.2133 8.78672C56.8794 14.4531 60 21.9867 60 30C60 38.0133 56.8794 45.5469 51.2133 51.2133C45.5469 56.8794 38.0133 60 30 60ZM30 3.51563C22.9257 3.51563 16.275 6.27047 11.2728 11.2728C6.27047 16.275 3.51563 22.9257 3.51563 30C3.51563 37.0743 6.27047 43.725 11.2728 48.7272C16.275 53.7296 22.9257 56.4844 30 56.4844C37.0743 56.4844 43.725 53.7296 48.7272 48.7272C53.7296 43.725 56.4844 37.0743 56.4844 30C56.4844 22.9257 53.7296 16.275 48.7272 11.2728C43.725 6.27047 37.0743 3.51563 30 3.51563Z" fill="white"/>
<path d="M28.2422 7.03564H31.7578V11.7269H28.2422V7.03564Z" fill="white"/>
<path d="M41.6722 15.8391L44.9889 12.5225L47.4745 15.008L44.1577 18.3246L41.6722 15.8391Z" fill="white"/>
<path d="M48.2733 28.2422H52.9646V31.7578H48.2733V28.2422Z" fill="white"/>
<path d="M41.6691 44.1642L44.1547 41.6787L47.4713 44.9954L44.9858 47.481L41.6691 44.1642Z" fill="white"/>
<path d="M28.2422 48.2734H31.7578V52.9647H28.2422V48.2734Z" fill="white"/>
<path d="M12.5127 44.9925L15.8295 41.6758L18.315 44.1613L14.9983 47.478L12.5127 44.9925Z" fill="white"/>
<path d="M7.03552 28.2422H11.7268V31.7578H7.03552V28.2422Z" fill="white"/>
<path d="M12.5157 15.0046L15.0013 12.519L18.318 15.8358L15.8325 18.3213L12.5157 15.0046Z" fill="white"/>
<path d="M42.4092 31.7579H28.2422V17.5908H31.7578V28.2422H42.4092V31.7579Z" fill="white"/>
</g>
<defs>
<clipPath id="clip0_24_3">
<rect width="60" height="60" fill="white"/>
</clipPath>
</defs>
</svg>
