<svg xmlns="http://www.w3.org/2000/svg" fill="none" viewBox="0 0 100 100">
    <g filter="url(#a)">
        <circle cx="48" cy="46" r="43.5" fill="url(#c)"/>
        <circle cx="48" cy="46" r="43.5" stroke="url(#d)"/>
    </g>
    <path stroke="#fff" stroke-linecap="round" d="M65 52.2a19 19 0 0 0-3-15.9 17.8 17.8 0 0 0-14-7.1 17 17 0 0 0-14 7.1 18.6 18.6 0 0 0-3 15.9"/>
    <path stroke="#fff" d="M49.5 48.6c1 1.5.3 3.7-1.5 5-1.8 1.2-4 1-5-.4a235 235 0 0 1-7.4-17.6c-.2-.5.4-1 .7-.5 3.6 3.5 12 11.8 13.2 13.5Z"/>
    <path stroke="#fff" stroke-linecap="round" d="M48 29.2v4m-12.4 1.3 2.7 3m22.1-3-2.7 3M65 52.2l-3.8-1m-30.2 1 3.8-1"/>
    <defs>
        <linearGradient id="c" x1="48" x2="48" y1="3" y2="89" gradientUnits="userSpaceOnUse">
            <stop stop-color="#414141"/>
            <stop offset="1" stop-color="#141414"/>
        </linearGradient>
        <linearGradient id="d" x1="48" x2="48" y1="3" y2="89" gradientUnits="userSpaceOnUse">
            <stop stop-color="#141414"/>
            <stop offset="1" stop-color="#414141"/>
        </linearGradient>
        <filter id="a" width="100" height="100" x="0" y="0" color-interpolation-filters="sRGB" filterUnits="userSpaceOnUse">
            <feFlood flood-opacity="0" result="BackgroundImageFix"/>
            <feColorMatrix in="SourceAlpha" result="hardAlpha" values="0 0 0 0 0 0 0 0 0 0 0 0 0 0 0 0 0 0 127 0"/>
            <feOffset dx="2" dy="4"/>
            <feGaussianBlur stdDeviation="3"/>
            <feColorMatrix values="0 0 0 0 0 0 0 0 0 0 0 0 0 0 0 0 0 0 0.65 0"/>
            <feBlend in2="BackgroundImageFix" result="effect1_dropShadow_1274_10753"/>
            <feBlend in="SourceGraphic" in2="effect1_dropShadow_1274_10753" result="shape"/>
        </filter>
    </defs>
</svg>