<svg width="60" height="60" viewBox="0 0 60 60" fill="none" xmlns="http://www.w3.org/2000/svg">
<g clip-path="url(#clip0_24_14)">
<path d="M6.56958 39.5645L6.8463 37.4824L10.7879 38.0671L10.5113 40.1492L6.56958 39.5645Z" fill="white"/>
<path d="M14.7588 53.5293L15.0355 51.4473L17.0064 51.7396L16.7296 53.8217L14.7588 53.5293Z" fill="white"/>
<path d="M59.9472 26.7944L59.7741 24.6997L39.8059 26.5463C39.1462 26.6066 38.5242 26.8968 38.0377 27.3713C37.5512 27.8459 37.2278 28.4778 37.1184 29.1677L36.2126 34.9113C36.1818 35.205 36.21 35.5023 36.2953 35.7838C36.3806 36.0653 36.521 36.3246 36.7076 36.5448C36.8941 36.765 37.1224 36.9413 37.3778 37.0621C37.6331 37.1829 37.9097 37.2454 38.1894 37.2457C38.2479 37.246 38.3064 37.2432 38.3646 37.2373L55.0032 35.6968L56.2186 50.3626L50.1906 50.92C49.811 49.1956 48.8551 47.674 47.4986 46.6346C46.1421 45.5952 44.476 45.1078 42.8066 45.2621C41.1372 45.4163 39.5767 46.2018 38.4115 47.4742C37.2464 48.7466 36.555 50.4204 36.4644 52.1881L33.4117 52.47C33.2816 52.4826 33.1505 52.4676 33.0261 52.426C32.9016 52.3843 32.7863 52.3166 32.687 52.227C32.5864 52.1387 32.5034 52.0303 32.4428 51.908C32.3821 51.7856 32.345 51.6517 32.3336 51.5141L32.2471 50.4626L35.2212 50.187L35.047 48.0923L32.0729 48.371L31.9833 47.29L35.489 45.0649C35.6186 44.9826 35.7287 44.8703 35.811 44.7363C35.8933 44.6024 35.9456 44.4504 35.9641 44.2919C35.9825 44.1333 35.9665 43.9725 35.9173 43.8215C35.8681 43.6705 35.7869 43.5333 35.6801 43.4203L34.3931 42.0617L35.6801 40.7021C35.7913 40.5843 35.8744 40.4403 35.9227 40.2819C35.971 40.1235 35.983 39.9553 35.9577 39.791C35.9324 39.6268 35.8706 39.4712 35.7774 39.3371C35.6841 39.203 35.5621 39.0942 35.4213 39.0196L31.9902 37.2068C32.0798 36.8356 32.1674 36.4633 32.2819 36.1006L36.0265 26.4989C36.2338 25.9633 36.577 25.4986 37.0184 25.1559C37.4598 24.8132 37.9821 24.6058 38.5278 24.5567L59.0454 22.6639C59.2707 22.6444 59.4973 22.6508 59.7213 22.6829L60 20.6008C59.6264 20.546 59.2481 20.5355 58.8722 20.5693L38.3537 22.462C37.4441 22.5442 36.5736 22.8899 35.8381 23.4612C35.1026 24.0324 34.5305 24.807 34.1851 25.6997L30.4215 35.3739C29.9333 36.9209 29.6489 38.5316 29.5765 40.1606C29.3603 39.6368 29.0878 39.141 28.7642 38.6832C28.2153 37.9094 27.5265 37.2584 26.7379 36.7676C25.9493 36.2769 25.0763 35.9561 24.1696 35.824L22.584 35.5885L27.8824 31.8576L29.2958 33.3508L30.7032 31.8639L28.7125 29.7608C28.5498 29.5889 28.3357 29.4818 28.1066 29.4578C27.8776 29.4339 27.6478 29.4945 27.4563 29.6293L20.3096 34.662L13.7222 23.4305C13.338 22.7753 12.822 22.2174 12.2108 21.7965C11.5996 21.3756 10.9081 21.102 10.1857 20.9951L0.276713 19.5229L0 21.6061L9.9079 23.0783C10.3417 23.1419 10.7568 23.3059 11.1237 23.5583C11.4907 23.8108 11.8005 24.1456 12.031 24.5389L12.6601 25.6103L0.276713 23.7723L0 25.8543L4.301 26.4936L3.46987 32.7409L0.276713 32.2677L0 34.3497L3.19315 34.8239L1.25317 49.4026L0.276713 49.2575L0 51.3395L8.93942 52.6666C8.94629 54.614 9.68341 56.4793 10.9893 57.8538C12.2952 59.2283 14.0636 60 15.907 60C17.4135 59.9955 18.8781 59.4761 20.0821 58.5196C21.2861 57.563 22.1648 56.2206 22.587 54.6929L25.6218 55.1429C25.7614 55.1639 25.902 55.1744 26.0429 55.1745C26.762 55.173 27.4564 54.8975 27.9985 54.3985C28.5407 53.8995 28.8942 53.2106 28.9942 52.4583L29.8701 45.8683L30.3539 51.697C30.4205 52.4811 30.7617 53.2106 31.3107 53.7429C31.8597 54.2753 32.5769 54.572 33.322 54.5751C33.4097 54.5751 33.4973 54.5751 33.5849 54.5636L36.6386 54.2807C36.9984 55.8932 37.862 57.3305 39.0901 58.3607C40.3182 59.391 41.839 59.954 43.4071 59.959C43.6102 59.959 43.8143 59.9496 44.0193 59.9306C45.6881 59.7777 47.2485 58.9936 48.4138 57.7224C49.579 56.4513 50.2707 54.7784 50.3618 53.0115L59.9453 52.125L59.7721 50.0303L58.1993 50.1755L56.985 35.5096L59.9453 35.2362L59.7721 33.1415L56.8118 33.4233L56.2922 27.1299L59.9472 26.7944ZM28.1282 43.8357L27.9888 44.8767L24.0472 44.291L24.3239 42.2089L28.167 42.7789C28.1873 43.1316 28.1743 43.4856 28.1282 43.8357ZM6.27283 26.7859L14.0198 27.9364V27.9301L18.1218 34.9165L5.4407 33.0343L6.27283 26.7859ZM20.8291 53.37C20.6922 54.3999 20.2692 55.3637 19.6138 56.1396C18.9582 56.9156 18.0997 57.4686 17.1466 57.729C16.1936 57.9893 15.1888 57.9453 14.2594 57.6023C13.3301 57.2593 12.5179 56.633 11.9255 55.8023C11.3693 55.0224 11.0296 54.0943 10.9445 53.1219C10.8595 52.1495 11.0325 51.1713 11.444 50.297C11.8557 49.4226 12.4897 48.6866 13.2749 48.1715C14.0602 47.6563 14.9658 47.3825 15.8901 47.3805C16.1252 47.3804 16.36 47.3976 16.5929 47.4319C17.8992 47.6278 19.0788 48.3628 19.8729 49.476C20.667 50.5891 21.0109 51.9895 20.8291 53.37ZM25.8956 53.0609L22.8597 52.6098C22.8555 51.245 22.4917 49.9083 21.8093 48.7495C21.1269 47.5906 20.1525 46.6553 18.9955 46.0481C17.8384 45.4409 16.5443 45.186 15.2579 45.3117C13.9714 45.4375 12.7435 45.9389 11.7116 46.76C10.51 47.7146 9.63615 49.0574 9.2231 50.5845L3.224 49.6949L5.16399 35.1216L23.8889 37.8976C24.6563 37.9916 25.3901 38.2836 26.0253 38.7482C26.6605 39.2127 27.1776 39.8354 27.531 40.5612L24.5976 40.1259C24.0751 40.0482 23.5447 40.1928 23.1231 40.528C22.7015 40.8632 22.4231 41.3616 22.349 41.9135L22.0724 43.9956C21.9986 44.5477 22.1353 45.1083 22.4527 45.554C22.7699 45.9996 23.2418 46.2939 23.7645 46.372L27.7072 46.9567L27.4305 49.0398L24.4732 48.6013L24.1965 50.6833L27.1537 51.1229L27.0144 52.164C26.978 52.4393 26.8399 52.6883 26.6303 52.8564C26.4206 53.0245 26.1564 53.098 25.8956 53.0609ZM33.2962 40.2468L32.2819 41.3183C32.0953 41.5155 31.9905 41.7829 31.9905 42.0617C31.9905 42.3406 32.0953 42.608 32.2819 42.8052L33.3719 43.9546L31.7902 44.9588L31.5822 42.4476C31.499 41.4191 31.5107 40.3844 31.617 39.3583L33.2962 40.2468ZM48.3721 52.1429C48.4579 53.1789 48.251 54.2184 47.7776 55.1302C47.3041 56.0419 46.5854 56.7849 45.7122 57.265C44.8391 57.7453 43.8508 57.9411 42.8723 57.8279C41.8938 57.7146 40.969 57.2974 40.2149 56.6289C39.4609 55.9604 38.9115 55.0707 38.6361 54.0723C38.3606 53.0739 38.3717 52.0116 38.6678 51.0199C38.9639 50.0281 39.5317 49.1514 40.2995 48.5006C41.0673 47.8498 42.0005 47.4541 42.9811 47.3636C43.1284 47.35 43.2798 47.3426 43.4231 47.3426C44.6665 47.3449 45.8641 47.839 46.78 48.7274C47.6959 49.6158 48.2639 50.8343 48.3721 52.1429ZM54.831 33.6147L38.1834 35.1973L39.0842 29.5189C39.1207 29.2889 39.2285 29.0783 39.3907 28.9202C39.5529 28.7619 39.7602 28.6653 39.9801 28.6451L54.3135 27.3202L54.831 33.6147Z" fill="white"/>
<path d="M39.2971 39.2565L43.2627 38.8906L43.4359 40.9853L39.4703 41.3512L39.2971 39.2565Z" fill="white"/>
<path d="M42.3064 51.6552L44.2892 51.4722L44.4624 53.5669L42.4796 53.7499L42.3064 51.6552Z" fill="white"/>
<path d="M16.3559 23.8775L17.7633 22.3907L16.4763 21.031H19.0504C19.3144 21.031 19.5676 20.9202 19.7542 20.723C19.9409 20.5258 20.0458 20.2584 20.0458 19.9794V17.2601L23.3235 20.7229C23.5102 20.92 23.7633 21.0307 24.0273 21.0307C24.2912 21.0307 24.5443 20.92 24.7309 20.7229L28.0087 17.2601V19.9794C28.0087 20.2584 28.1136 20.5258 28.3003 20.723C28.4869 20.9202 28.7401 21.031 29.0041 21.031H32.5735L30.2911 23.4422L31.6986 24.929L35.6801 20.7229C35.8192 20.5758 35.914 20.3885 35.9524 20.1845C35.9908 19.9806 35.9711 19.7692 35.8957 19.577C35.8204 19.385 35.6929 19.2207 35.5292 19.1052C35.3656 18.9897 35.1731 18.928 34.9763 18.9279H29.9995V14.7217C29.9995 14.5138 29.941 14.3105 29.8317 14.1377C29.7223 13.9647 29.5669 13.83 29.385 13.7504C29.2031 13.6709 29.003 13.65 28.81 13.6906C28.6169 13.7311 28.4396 13.8313 28.3004 13.9783L24.0273 18.4926L19.7541 13.9783C19.6149 13.8313 19.4376 13.7311 19.2445 13.6906C19.0514 13.65 18.8514 13.6709 18.6695 13.7504C18.4877 13.83 18.3322 13.9647 18.2228 14.1377C18.1135 14.3105 18.0551 14.5138 18.055 14.7217V18.9279H14.0736C13.8767 18.928 13.6843 18.9897 13.5207 19.1052C13.357 19.2207 13.2295 19.385 13.1541 19.577C13.0788 19.7692 13.0591 19.9806 13.0975 20.1845C13.1359 20.3885 13.2306 20.5758 13.3698 20.7229L16.3559 23.8775Z" fill="white"/>
<path d="M22.3352 12.6185H24.326C24.3264 12.415 24.3679 12.214 24.4478 12.0289C24.5275 11.8437 24.6439 11.6787 24.7888 11.5449C25.3855 10.8933 25.7191 10.0223 25.7191 9.11579C25.7191 8.20925 25.3855 7.3382 24.7888 6.6867C24.6432 6.55267 24.5264 6.3872 24.4464 6.20145C24.3663 6.01571 24.325 5.814 24.325 5.60993C24.325 5.40585 24.3663 5.20414 24.4464 5.0184C24.5264 4.83266 24.6432 4.66719 24.7888 4.53314C25.3888 3.88344 25.7231 3.01068 25.7195 2.10303H23.7288C23.7285 2.30706 23.687 2.50867 23.607 2.69438C23.527 2.88008 23.4103 3.04559 23.2649 3.17981C22.6685 3.8319 22.3352 4.7032 22.3352 5.60993C22.3352 6.51666 22.6685 7.38794 23.2649 8.04002C23.4103 8.17387 23.527 8.3391 23.6069 8.52456C23.6868 8.71002 23.7281 8.91148 23.7281 9.11525C23.7281 9.31902 23.6868 9.5204 23.6069 9.70594C23.527 9.8914 23.4103 10.0566 23.2649 10.1905C22.6649 10.8392 22.3309 11.7115 22.3352 12.6185Z" fill="white"/>
<path d="M28.3074 10.5155H30.2982C30.2986 10.312 30.3401 10.111 30.4199 9.92585C30.4998 9.74069 30.616 9.57569 30.7611 9.44177C31.3578 8.79031 31.6913 7.91931 31.6913 7.01274C31.6913 6.1062 31.3578 5.23517 30.7611 4.58368C30.6154 4.44964 30.4986 4.28417 30.4186 4.09842C30.3386 3.91268 30.2971 3.71098 30.2971 3.5069C30.2971 3.30282 30.3386 3.10112 30.4186 2.91537C30.4986 2.72962 30.6154 2.56415 30.7611 2.43012C31.361 1.78042 31.6952 0.907654 31.6917 0H29.701C29.7007 0.204029 29.6592 0.405646 29.5792 0.59135C29.4992 0.777054 29.3826 0.942562 29.2371 1.07678C28.6408 1.72888 28.3074 2.60017 28.3074 3.5069C28.3074 4.41362 28.6408 5.28492 29.2371 5.93702C29.3826 6.07085 29.4991 6.23608 29.579 6.42155C29.659 6.60702 29.7004 6.80844 29.7004 7.01222C29.7004 7.21599 29.659 7.41741 29.579 7.60288C29.4991 7.78839 29.3826 7.95354 29.2371 8.08739C28.6371 8.73615 28.3031 9.60846 28.3074 10.5155Z" fill="white"/>
</g>
<defs>
<clipPath id="clip0_24_14">
<rect width="60" height="60" fill="white"/>
</clipPath>
</defs>
</svg>
