<svg version="1.1" id="Layer_1" xmlns:sketch="http://www.bohemiancoding.com/sketch/ns" xmlns="http://www.w3.org/2000/svg" xmlns:xlink="http://www.w3.org/1999/xlink" viewBox="-5 0 60 64" enable-background="new 0 0 56 64" xml:space="preserve" fill="#000000"><g id="SVGRepo_bgCarrier" stroke-width="0"></g><g id="SVGRepo_tracerCarrier" stroke-linecap="round" stroke-linejoin="round"></g><g id="SVGRepo_iconCarrier"> <title>Document-error</title> <desc>Created with Sketch.</desc> <g id="Page-1" sketch:type="MSPage"> <g id="Document-error" transform="translate(1.000000, 1.000000)" sketch:type="MSLayerGroup"> <path id="Shape_1_" sketch:type="MSShapeGroup" fill="none" stroke="#E15A2B" stroke-width="2" d="M47,57v3c0,1.1-0.9,2-2,2H2 c-1.1,0-2-0.9-2-2V2c0-1.1,0.9-2,2-2h25.9L47,18.1v26.5"></path> <path id="Shape" sketch:type="MSShapeGroup" fill="none" stroke="#E15A2B" stroke-width="2" d="M47,18.9H30c-1.1,0-2-0.9-2-2V1"></path> <path id="Shape_2_" sketch:type="MSShapeGroup" fill="none" stroke="#E15A2B" stroke-width="2" d="M9,17h13"></path> <path id="Shape_3_" sketch:type="MSShapeGroup" fill="none" stroke="#E15A2B" stroke-width="2" d="M9,27h31"></path> <path id="Shape_4_" sketch:type="MSShapeGroup" fill="none" stroke="#E15A2B" stroke-width="2" d="M9,34h31"></path> <path id="Shape_5_" sketch:type="MSShapeGroup" fill="none" stroke="#E15A2B" stroke-width="2" d="M9,43h26"></path> <path id="Shape_6_" sketch:type="MSShapeGroup" fill="none" stroke="#E15A2B" stroke-width="2" d="M9,49h18"></path> <path id="Shape_7_" sketch:type="MSShapeGroup" fill="none" stroke="#E15A2B" stroke-width="2" d="M41.6,58.8l3.5-3.6l3.4,3.5 l4.3-4.2L49.3,51l3.5-3.5l-4.3-4.3L45,46.7l-3.5-3.5l-4.2,4.3l3.5,3.4l-3.6,3.5L41.6,58.8z"></path> </g> </g> </g></svg>