<svg width="50" height="64" viewBox="0 0 50 64" fill="none" xmlns="http://www.w3.org/2000/svg">
                                <path d="M42.6977 29.6498V29.8998H42.9477H47.8913C48.9085 29.8998 49.7499 30.7126 49.75 31.7263V61.9235C49.75 62.9286 48.9214 63.75 47.8913 63.75H2.10874C1.07861 63.75 0.25 62.9286 0.25 61.9235V31.7262C0.25 30.7115 1.09359 29.8997 2.10874 29.8997H7.05231H7.30231V29.6497V6.96036C7.30231 5.9553 8.13092 5.13387 9.16105 5.13387H32.29H32.4417L32.5118 4.99931C33.9776 2.18368 36.9547 0.25 40.3849 0.25C45.2641 0.25 49.2274 4.15818 49.2273 8.9536C49.2273 12.8975 46.546 16.2393 42.8781 17.3023L42.6977 17.3546V17.5425V29.6498ZM35.2599 8.95325L35.2599 9.20323H35.2662C35.4039 11.9741 37.8203 14.1752 40.7198 13.9916C43.3366 13.8398 45.51 11.6649 45.51 8.95348C45.51 6.16467 43.2074 3.90287 40.3849 3.90287C37.5505 3.90287 35.2597 6.17963 35.2599 8.95325ZM11.2695 8.78686H11.0195V9.03686V36.9996V37.1126L11.1044 37.1873L11.2695 36.9996C11.1044 37.1873 11.1045 37.1873 11.1046 37.1874L11.1051 37.1878L11.1069 37.1895L11.1144 37.196L11.1438 37.2219L11.2586 37.3229L11.6944 37.7062L13.2497 39.0742L17.9695 43.2255L19.7654 44.8051C22.5073 47.2168 24.8301 49.2599 24.8251 49.2549L24.9908 49.417L25.1649 49.2639L38.8953 37.1873L38.9802 37.1126V36.9996V17.7582V17.5496L38.775 17.5123C34.6397 16.7593 31.5817 13.201 31.5428 9.03452L31.5404 8.78686H31.2928H11.2695ZM4.38258 36.1773L3.96747 35.8122V36.3651V58.0688V58.5345L4.35565 58.2771L18.4144 48.9535L18.6812 48.7766L18.445 48.5607C18.3744 48.4962 18.336 48.4603 18.2975 48.4246C18.0126 48.1611 17.7189 47.9072 4.38258 36.1773ZM8.83577 59.847V60.097H9.08577H40.88H41.7122L41.0177 59.6384L28.647 51.469L28.4845 51.3618L28.3407 51.493L27.5465 52.2176C26.1077 53.5302 23.8823 53.531 22.4432 52.2152L22.4432 52.2151L21.6193 51.4622L21.4752 51.3305L21.3125 51.4384L8.9476 59.6385L8.83577 59.7127V59.8469V59.847ZM45.6449 58.2928L46.0327 58.5488V58.0841V36.3651V35.8122L45.6175 36.1773C32.3007 47.8902 31.9856 48.1632 31.6792 48.4457C31.6372 48.4844 31.5953 48.5234 31.5199 48.5921L31.2828 48.8085L31.5507 48.9854L45.6449 58.2928ZM15.9248 13.6805H28.7263C29.7564 13.6805 30.585 14.5019 30.585 15.507C30.585 16.512 29.7564 17.3335 28.7263 17.3335H15.9248C14.8947 17.3335 14.0661 16.512 14.0661 15.507C14.0661 14.5019 14.8947 13.6805 15.9248 13.6805ZM15.923 21.9423H34.0768C35.107 21.9423 35.9356 22.7638 35.9356 23.7688C35.9356 24.7739 35.107 25.5953 34.0768 25.5953H15.923C14.8929 25.5953 14.0643 24.7739 14.0643 23.7688C14.0643 22.7638 14.8929 21.9423 15.923 21.9423ZM15.923 28.9221H34.0768C35.107 28.9221 35.9356 29.7435 35.9356 30.7486C35.9356 31.7536 35.107 32.5751 34.0768 32.5751H15.923C14.8929 32.5751 14.0643 31.7536 14.0643 30.7486C14.0643 29.7435 14.8929 28.9221 15.923 28.9221Z" fill="white" stroke="black" stroke-width="0.5"></path>
                            </svg>