<svg xmlns="http://www.w3.org/2000/svg" width="66" height="86" viewBox="0 0 66 86" fill="none"><script xmlns=""/>
<g clip-path="url(#clip0)">
<path fill-rule="evenodd" clip-rule="evenodd" d="M0 2.06088C0 0.934285 0.923413 0.0209961 2.0625 0.0209961H45.375C46.5141 0.0209961 47.4375 0.934285 47.4375 2.06088V18.38H63.9375C65.0766 18.38 66 19.2933 66 20.4199V83.6564C66 84.783 65.0766 85.6963 63.9375 85.6963H2.0625C0.923413 85.6963 0 84.783 0 83.6564V2.06088ZM4.125 4.10077V81.6165H61.875V22.4598H45.375C44.2359 22.4598 43.3125 21.5465 43.3125 20.4199V4.10077H4.125Z" fill="#4A4A4A"/>
<path d="M45.375 20.4209H63.9375L45.375 2.06189V20.4209Z" fill="#4A4A4A"/>
<path fill-rule="evenodd" clip-rule="evenodd" d="M44.5857 0.176333C45.3564 -0.139403 46.2435 0.0351212 46.8334 0.618525L65.3959 18.9775C65.9858 19.5609 66.1622 20.4383 65.843 21.2006C65.5238 21.9628 64.7717 22.4598 63.9375 22.4598H45.375C44.2359 22.4598 43.3125 21.5465 43.3125 20.4199V2.06094C43.3125 1.23589 43.815 0.492069 44.5857 0.176333ZM47.4375 6.98567V18.38H58.9582L47.4375 6.98567Z" fill="#4A4A4A"/>
<path fill-rule="evenodd" clip-rule="evenodd" d="M23.5494 23.0789C24.3427 23.8874 24.3232 25.1788 23.5058 25.9635L16.4933 32.6951C15.7031 33.4537 14.4496 33.4644 13.6462 32.7195L10.3462 29.6596C9.51521 28.8891 9.4731 27.5982 10.2522 26.7763C11.0312 25.9544 12.3365 25.9128 13.1675 26.6833L15.0322 28.4123L20.6329 23.0359C21.4502 22.2512 22.756 22.2705 23.5494 23.0789Z" fill="#E15A2B"/>
<path fill-rule="evenodd" clip-rule="evenodd" d="M20.8894 42.6845C21.6701 43.5049 21.6306 44.7959 20.8011 45.568L13.7886 52.0956C12.9591 52.8678 11.6538 52.8286 10.8731 52.0083C10.0924 51.1879 10.132 49.8969 10.9614 49.1247L17.9739 42.5971C18.8034 41.825 20.1087 41.8641 20.8894 42.6845Z" fill="#E15A2B"/>
<path fill-rule="evenodd" clip-rule="evenodd" d="M10.8731 42.6845C11.6538 41.8641 12.9591 41.825 13.7886 42.5971L20.8011 49.1247C21.6306 49.8969 21.6701 51.1879 20.8894 52.0083C20.1087 52.8286 18.8034 52.8678 17.9739 52.0956L10.9614 45.568C10.132 44.7959 10.0924 43.5049 10.8731 42.6845Z" fill="#E15A2B"/>
<path fill-rule="evenodd" clip-rule="evenodd" d="M28.0508 28.9874C28.0508 27.8608 28.9742 26.9475 30.1133 26.9475H52.182C53.3211 26.9475 54.2445 27.8608 54.2445 28.9874C54.2445 30.114 53.3211 31.0273 52.182 31.0273H30.1133C28.9742 31.0273 28.0508 30.114 28.0508 28.9874Z" fill="#4A4A4A"/>
<path fill-rule="evenodd" clip-rule="evenodd" d="M23.5494 60.0009C24.3427 60.8093 24.3232 62.1007 23.5058 62.8854L16.4933 69.617C15.7227 70.3568 14.507 70.3879 13.6987 69.6884L10.3987 66.8326C9.54145 66.0907 9.45458 64.802 10.2047 63.9541C10.9548 63.1063 12.2578 63.0203 13.115 63.7622L14.9844 65.38L20.6329 59.9578C21.4503 59.1732 22.756 59.1924 23.5494 60.0009Z" fill="#E15A2B"/>
<path fill-rule="evenodd" clip-rule="evenodd" d="M28.0508 66.1134C28.0508 64.9868 28.9742 64.0735 30.1133 64.0735H52.182C53.3211 64.0735 54.2445 64.9868 54.2445 66.1134C54.2445 67.24 53.3211 68.1533 52.182 68.1533H30.1133C28.9742 68.1533 28.0508 67.24 28.0508 66.1134Z" fill="#4A4A4A"/>
<path fill-rule="evenodd" clip-rule="evenodd" d="M28.0508 46.9384C28.0508 45.8118 28.9742 44.8986 30.1133 44.8986H52.182C53.3211 44.8986 54.2445 45.8118 54.2445 46.9384C54.2445 48.065 53.3211 48.9783 52.182 48.9783H30.1133C28.9742 48.9783 28.0508 48.065 28.0508 46.9384Z" fill="#4A4A4A"/>
</g>
<defs>
<clipPath id="clip0">
<rect width="66" height="85.6753" fill="white" transform="translate(0 0.0209961)"/>
</clipPath>
</defs>
<script xmlns=""/></svg>