<svg xmlns="http://www.w3.org/2000/svg" width="69" height="68" viewBox="0 0 69 68" fill="none"><script xmlns=""/>
<g clip-path="url(#clip0)">
<path fill-rule="evenodd" clip-rule="evenodd" d="M34.5 3.01926C17.1399 3.01926 3.06667 16.8749 3.06667 33.9667C3.06667 51.0585 17.1399 64.9141 34.5 64.9141C51.8601 64.9141 65.9333 51.0585 65.9333 33.9667C65.9333 16.8749 51.8601 3.01926 34.5 3.01926ZM0 33.9667C0 15.2074 15.4462 0 34.5 0C53.5538 0 69 15.2074 69 33.9667C69 52.726 53.5538 67.9333 34.5 67.9333C15.4462 67.9333 0 52.726 0 33.9667Z" fill="#E15A2B"/>
<path fill-rule="evenodd" clip-rule="evenodd" d="M34.5001 16.2285C35.347 16.2285 36.0335 16.9044 36.0335 17.7381V35.3777L45.0154 44.4944C45.605 45.0929 45.5902 46.0486 44.9824 46.6291C44.3745 47.2096 43.4038 47.1951 42.8142 46.5966L33.3995 37.0407C33.122 36.759 32.9668 36.382 32.9668 35.9896V17.7381C32.9668 16.9044 33.6533 16.2285 34.5001 16.2285Z" fill="#4A4A4A"/>
</g>
<defs>
<clipPath id="clip0">
<rect width="69" height="67.9333" fill="white"/>
</clipPath>
</defs>
<script xmlns=""/></svg>