<svg xmlns="http://www.w3.org/2000/svg" width="127" height="59" viewBox="0 0 127 59" fill="none"><script xmlns=""/>
<g clip-path="url(#clip0)">
<path d="M42.667 20.1698C42.667 20.1698 48.6908 13.9018 67.3554 13.157C83.0236 13.9018 88.5168 20.1698 88.5168 20.1698H42.667Z" fill="#E15A2B"/>
<path d="M88.5476 21.7213H42.6665C42.0423 21.7213 41.4805 21.3489 41.2308 20.7904C40.9811 20.2318 41.1059 19.5492 41.5429 19.1148C41.7926 18.8355 48.2222 12.3813 67.2925 11.6055C83.5849 12.3813 89.4527 18.8665 89.7024 19.1458C90.1082 19.6112 90.2018 20.2629 89.9521 20.8214C89.7024 21.3799 89.1406 21.7213 88.5476 21.7213ZM48.0973 18.6183H83.6786C80.5886 16.9737 75.3451 15.0809 67.2925 14.7085C57.7729 15.0809 51.6867 16.9737 48.0973 18.6183Z" fill="#E15A2B"/>
<path d="M17.9787 52.627C17.8851 52.627 17.7914 52.627 17.6978 52.627C7.80371 51.7581 0.188076 43.8455 0.000806681 34.1952C-0.155251 26.2516 4.58891 19.2388 12.0485 16.291L48.1291 3.13435C61.9246 -1.89248 77.7801 -0.837469 90.7953 6.02013C93.105 7.23029 98.1925 8.75076 103.093 10.2092C105.714 10.9849 108.305 11.7607 110.552 12.5054C121.008 15.9807 127.001 23.2727 127.001 32.5196C127.001 38.3222 124.473 45.9556 117.388 49.9894C115.889 50.8583 113.986 50.3308 113.112 48.8413C112.238 47.3519 112.768 45.4591 114.266 44.5902C119.073 41.8596 120.758 36.5535 120.758 32.4886C120.758 25.9723 116.42 20.9765 108.586 18.37C106.401 17.6563 103.873 16.8806 101.314 16.1359C95.8828 14.5223 90.7641 13.0018 87.8927 11.4814C76.4068 5.43056 62.4552 4.49967 50.3139 8.93694L14.2957 22.0936C9.33307 24.0485 6.14949 28.765 6.24313 34.1021C6.36797 40.4322 11.6427 45.8625 18.2596 46.452C19.9762 46.6072 21.2559 48.0966 21.0998 49.8033C20.9438 51.4168 19.6017 52.627 17.9787 52.627Z" fill="#4A4A4A"/>
<path d="M78.5296 52.6887H56.4942C54.7776 52.6887 53.373 51.2923 53.373 49.5857C53.373 47.8791 54.7776 46.4827 56.4942 46.4827H78.5296C80.2462 46.4827 81.6508 47.8791 81.6508 49.5857C81.6508 51.2923 80.2462 52.6887 78.5296 52.6887Z" fill="#4A4A4A"/>
<path d="M36.2376 58.0882C43.1326 58.0882 48.7222 52.5312 48.7222 45.6763C48.7222 38.8214 43.1326 33.2643 36.2376 33.2643C29.3425 33.2643 23.7529 38.8214 23.7529 45.6763C23.7529 52.5312 29.3425 58.0882 36.2376 58.0882Z" fill="#E15A2B"/>
<path d="M97.2874 58.0882C104.182 58.0882 109.772 52.5312 109.772 45.6763C109.772 38.8214 104.182 33.2643 97.2874 33.2643C90.3923 33.2643 84.8027 38.8214 84.8027 45.6763C84.8027 52.5312 90.3923 58.0882 97.2874 58.0882Z" fill="#E15A2B"/>
</g>
<defs>
<clipPath id="clip0">
<rect width="127" height="58.0879" fill="white"/>
</clipPath>
</defs>
<script xmlns=""/></svg>