<svg xmlns="http://www.w3.org/2000/svg" width="76" height="76" viewBox="0 0 76 76" fill="none"><script xmlns=""/>
<g clip-path="url(#clip0)">
<path d="M61.204 52.753L72.8619 64.153L64.1185 72.8706L45.5108 54.0942L38.7852 44.7059L40.3545 43.1412L41.6996 41.8001L43.0447 40.4589L44.6141 38.8942L54.4784 46.0471L61.204 52.753Z" fill="#E15A2B"/>
<path fill-rule="evenodd" clip-rule="evenodd" d="M44.3838 35.9628L55.9397 44.3423L62.782 51.1645L76.0483 64.1374L64.1094 76.0411L43.7909 55.5383L35.8574 44.4641L38.7697 41.5604L41.4599 38.8781L44.3838 35.9628ZM44.8452 41.8252L44.6304 42.0393L43.2853 43.3804L41.9402 44.7216L41.7138 44.9474L47.2316 52.6497L64.1284 69.6998L69.6763 64.1682L59.6191 54.3335L53.0179 47.7515L44.8452 41.8252Z" fill="#E15A2B"/>
<path fill-rule="evenodd" clip-rule="evenodd" d="M11.1873 11.3924C12.0582 10.5149 13.4777 10.5074 14.3578 11.3757L35.6557 32.3874C36.5359 33.2557 36.5434 34.671 35.6725 35.5486C34.8016 36.4261 33.3822 36.4336 32.502 35.5653L11.2041 14.5535C10.324 13.6852 10.3165 12.2699 11.1873 11.3924Z" fill="#4A4A4A"/>
<path d="M17.4871 12.294L12.1066 17.4352L6.5019 14.3058L0.224609 5.58816L5.38095 0.22345L14.3485 6.48227L17.4871 12.294Z" fill="#4A4A4A"/>
<path fill-rule="evenodd" clip-rule="evenodd" d="M49.3061 4.45464C53.7807 -0.00673483 60.1081 -1.0414 65.5892 1.0405C66.2996 1.31032 66.8244 1.92066 66.9834 2.66183C67.1424 3.403 66.9139 4.174 66.3763 4.70994L60.115 10.9529L64.5669 15.3917L70.8282 9.14876C71.3658 8.61282 72.139 8.38497 72.8824 8.5435C73.6258 8.70202 74.2379 9.22532 74.5085 9.9336C76.5966 15.3986 75.5588 21.7074 71.0843 26.1688C66.989 30.252 61.3416 31.4648 56.2115 30.0449L29.9099 56.2691C31.334 61.3841 30.1177 67.0149 26.0224 71.0982C21.5478 75.5596 15.2204 76.5942 9.7393 74.5123C9.02893 74.2425 8.50409 73.6322 8.3451 72.891C8.18611 72.1498 8.41463 71.3788 8.95215 70.8429L15.2135 64.5999L10.7616 60.1611L4.50024 66.4041C3.96272 66.94 3.18944 67.1678 2.44608 67.0093C1.70273 66.8508 1.09058 66.3275 0.819968 65.6192C-1.26807 60.1543 -0.230353 53.8454 4.24418 49.3841C8.33949 45.3008 13.9869 44.088 19.117 45.5079L45.4186 19.2837C43.9945 14.1687 45.2108 8.5379 49.3061 4.45464ZM60.265 4.48097C57.4474 4.41467 54.6544 5.44452 52.4766 7.61582C49.3288 10.7544 48.573 15.175 50.0719 19.0983C50.3864 19.9214 50.1868 20.8518 49.5622 21.4746L21.3144 49.6394C20.6898 50.2622 19.7565 50.4612 18.931 50.1476C14.9962 48.653 10.5626 49.4066 7.41469 52.5452C5.23698 54.7165 4.2041 57.5014 4.27059 60.3107L9.17634 55.4193C10.0518 54.5464 11.4713 54.5464 12.3468 55.4193L19.9693 63.0193C20.8448 63.8923 20.8448 65.3076 19.9693 66.1805L15.0635 71.0719C17.8811 71.1382 20.6741 70.1083 22.8519 67.937C25.9997 64.7984 26.7555 60.3778 25.2565 56.4545C24.9421 55.6314 25.1417 54.701 25.7663 54.0782L54.0141 25.9135C54.6387 25.2907 55.5719 25.0917 56.3974 25.4052C60.3323 26.8998 64.7659 26.1462 67.9138 23.0076C70.0915 20.8363 71.1244 18.0514 71.0579 15.2422L66.1522 20.1335C65.7317 20.5527 65.1615 20.7882 64.5669 20.7882C63.9723 20.7882 63.4021 20.5527 62.9816 20.1335L55.3592 12.5335C54.4837 11.6605 54.4837 10.2452 55.3592 9.37229L60.265 4.48097Z" fill="#4A4A4A"/>
</g>
<defs>
<clipPath id="clip0">
<rect width="76" height="76" fill="white"/>
</clipPath>
</defs>
<script xmlns=""/></svg>