<svg xmlns="http://www.w3.org/2000/svg" width="200" height="200" viewBox="0 0 70 27" fill="none"><script xmlns=""/>
<g clip-path="url(#clip0)">
<path d="M1.5957 6.76649C2.87133 6.44428 4.62532 6.28318 6.3793 6.12207C13.3952 6.44428 15.787 9.34419 15.787 9.34419H1.5957V6.76649Z" fill="#E15A2B"/>
<path fill-rule="evenodd" clip-rule="evenodd" d="M6.30556 5.31996C6.34159 5.31665 6.3778 5.31582 6.41394 5.31748C10.0294 5.48352 12.4941 6.31634 14.0768 7.1375C14.8667 7.54735 15.4322 7.95185 15.808 8.26354C15.9958 8.41929 16.1359 8.5516 16.2328 8.64947C16.2812 8.69841 16.3188 8.73872 16.3462 8.76904C16.3598 8.78419 16.3709 8.79685 16.3795 8.80684L16.3906 8.8198L16.3947 8.82473L16.3965 8.82681L16.3972 8.82775C16.3976 8.82819 16.398 8.82862 15.7855 9.34431L16.398 8.82862C16.596 9.06873 16.6387 9.40293 16.5075 9.68598C16.3763 9.96903 16.0948 10.1498 15.7855 10.1498H1.59414C1.15382 10.1498 0.796875 9.78919 0.796875 9.34431V6.76661C0.796875 6.39697 1.04586 6.07478 1.40078 5.98513C2.73648 5.64774 4.53881 5.48221 6.2542 5.32468L6.30556 5.31996ZM13.2865 8.53877C11.9213 7.84192 9.71505 7.08885 6.39541 6.92941C4.91858 7.06511 3.50977 7.19742 2.39141 7.41463V8.53877H13.2865Z" fill="#E15A2B"/>
<path fill-rule="evenodd" clip-rule="evenodd" d="M5.90011 3.22212C4.58419 3.22212 3.26507 3.36974 1.94078 3.66708C1.08111 3.8601 0.229349 3.31245 0.0383121 2.44387C-0.152725 1.57529 0.389306 0.7147 1.24897 0.521683C2.79484 0.174595 4.34588 0 5.90011 0C9.84856 0 13.5992 1.04105 16.9777 2.74778C16.9946 2.75636 17.0115 2.76524 17.0281 2.77442C17.7414 3.16753 19.1003 3.64802 20.8021 4.18024C21.5214 4.4052 22.3295 4.64749 23.1353 4.88912C24.0878 5.17472 25.0372 5.45941 25.8336 5.7135C25.8475 5.71792 25.8613 5.72254 25.875 5.72735C30.47 7.3344 33.3261 10.566 33.3261 14.9829C33.3261 17.8093 32.0319 21.3428 28.8459 23.1535C28.0783 23.5897 27.1061 23.3147 26.6744 22.5392C26.2426 21.7637 26.5148 20.7814 27.2824 20.3452C29.1988 19.256 30.137 16.9896 30.137 14.9829C30.137 12.3159 28.5343 10.0733 24.852 8.77929C24.03 8.5173 23.1758 8.26176 22.2912 7.99714C21.5041 7.76169 20.693 7.51906 19.8592 7.25829C18.2267 6.74776 16.5705 6.18639 15.5281 5.61792C12.5348 4.10971 9.27771 3.22212 5.90011 3.22212Z" fill="#4A4A4A"/>
<path fill-rule="evenodd" clip-rule="evenodd" d="M1.43555 22.716C1.43555 21.8263 2.14944 21.105 3.03008 21.105H11.4811C12.3617 21.105 13.0756 21.8263 13.0756 22.716C13.0756 23.6058 12.3617 24.3271 11.4811 24.3271H3.03008C2.14944 24.3271 1.43555 23.6058 1.43555 22.716Z" fill="#4A4A4A"/>
<path d="M19.7723 26.5826C22.8545 26.5826 25.3531 24.0581 25.3531 20.9439C25.3531 17.8297 22.8545 15.3052 19.7723 15.3052C16.69 15.3052 14.1914 17.8297 14.1914 20.9439C14.1914 24.0581 16.69 26.5826 19.7723 26.5826Z" fill="#E15A2B"/>
<path d="M68.406 6.76649C66.971 6.44428 65.3764 6.28318 63.1441 6.12207C56.1281 6.44428 53.7363 9.34419 53.7363 9.34419H68.5655L68.406 6.76649Z" fill="#494949"/>
<path fill-rule="evenodd" clip-rule="evenodd" d="M63.1083 5.31748C63.1393 5.31606 63.1703 5.31646 63.2013 5.3187C65.4355 5.47994 67.0817 5.64398 68.5794 5.98026C68.9261 6.0581 69.18 6.35824 69.2021 6.71636L69.3616 9.29406C69.3753 9.51599 69.2976 9.73379 69.147 9.89585C68.9963 10.0579 68.786 10.1498 68.5659 10.1498H53.7367C53.4274 10.1498 53.1459 9.96903 53.0147 9.68598C52.8835 9.40293 52.9262 9.06873 53.1243 8.82862L53.7367 9.34431C53.1243 8.82862 53.1246 8.82819 53.125 8.82775L53.1257 8.82681L53.1275 8.82473L53.1316 8.8198L53.1427 8.80684C53.1513 8.79685 53.1624 8.78419 53.1761 8.76904C53.2034 8.73872 53.241 8.69841 53.2895 8.64947C53.3863 8.5516 53.5264 8.41929 53.7142 8.26354C54.09 7.95185 54.6555 7.54735 55.4454 7.1375C57.0281 6.31634 59.4928 5.48352 63.1083 5.31748ZM56.2357 8.53877H67.7172L67.6488 7.43253C66.428 7.20259 65.0305 7.06645 63.1344 6.92905C59.8105 7.0877 57.6019 7.84139 56.2357 8.53877Z" fill="#494949"/>
<path fill-rule="evenodd" clip-rule="evenodd" d="M52.7039 2.74778C56.0823 1.04105 59.833 0 63.7814 0C65.4938 0 67.0341 0.174283 68.7183 0.514604C69.5818 0.689101 70.1419 1.53785 69.9692 2.41034C69.7964 3.28282 68.9564 3.84865 68.0929 3.67416C66.588 3.37005 65.2582 3.22212 63.7814 3.22212C60.4038 3.22212 57.1467 4.10971 54.1535 5.61792C53.1111 6.18639 51.4549 6.74776 49.8224 7.25829C48.9886 7.51906 48.1775 7.76169 47.3904 7.99714C46.5058 8.26176 45.6515 8.5173 44.8295 8.77929C41.1472 10.0733 39.5445 12.3159 39.5445 14.9829C39.5445 16.9896 40.4827 19.256 42.3992 20.3452C43.1667 20.7814 43.4389 21.7637 43.0072 22.5392C42.5754 23.3147 41.6032 23.5897 40.8357 23.1535C37.6496 21.3428 36.3555 17.8093 36.3555 14.9829C36.3555 10.566 39.2116 7.3344 43.8065 5.72735C43.8203 5.72254 43.8341 5.71792 43.848 5.7135C44.6443 5.45941 45.5938 5.17472 46.5462 4.88912C47.3521 4.64748 48.1601 4.4052 48.8794 4.18024C50.5813 3.64802 51.9401 3.16753 52.6534 2.77442C52.6701 2.76524 52.6869 2.75636 52.7039 2.74778Z" fill="#E15A2B"/>
<path fill-rule="evenodd" clip-rule="evenodd" d="M56.6055 22.716C56.6055 21.8263 57.3194 21.105 58.2 21.105H66.651C67.5317 21.105 68.2456 21.8263 68.2456 22.716C68.2456 23.6058 67.5317 24.3271 66.651 24.3271H58.2C57.3194 24.3271 56.6055 23.6058 56.6055 22.716Z" fill="#E15A2B"/>
<path d="M49.909 26.5826C52.9912 26.5826 55.4899 24.0581 55.4899 20.9439C55.4899 17.8297 52.9912 15.3052 49.909 15.3052C46.8268 15.3052 44.3281 17.8297 44.3281 20.9439C44.3281 24.0581 46.8268 26.5826 49.909 26.5826Z" fill="#494949"/>
</g>
<defs>
<clipPath id="clip0">
<rect width="70" height="26.5825" fill="white"/>
</clipPath>
</defs>
<script xmlns=""/></svg>