<svg xmlns="http://www.w3.org/2000/svg" width="63" height="47" viewBox="0 0 63 47" fill="none"><script xmlns=""/>
<g clip-path="url(#clip0)">
<path fill-rule="evenodd" clip-rule="evenodd" d="M0 8.0814C0 7.26991 0.687953 6.61206 1.53659 6.61206H61.4634C62.312 6.61206 63 7.26991 63 8.0814V44.8149C63 45.6264 62.312 46.2842 61.4634 46.2842H1.53659C0.687953 46.2842 0 45.6264 0 44.8149V8.0814ZM3.07317 9.55074V43.3455H59.9268V9.55074H3.07317Z" fill="#4A4A4A"/>
<path fill-rule="evenodd" clip-rule="evenodd" d="M22.2812 1.46934C22.2812 0.657845 22.9692 0 23.8178 0H40.7203C41.5689 0 42.2569 0.657845 42.2569 1.46934V8.08137C42.2569 8.89286 41.5689 9.5507 40.7203 9.5507H23.8178C22.9692 9.5507 22.2812 8.89286 22.2812 8.08137V1.46934ZM25.3544 2.93868V6.61203H39.1837V2.93868H25.3544Z" fill="#4A4A4A"/>
<path fill-rule="evenodd" clip-rule="evenodd" d="M0.280567 7.23499C0.568414 6.84441 1.0369 6.61206 1.5366 6.61206H61.4634C61.9729 6.61206 62.4492 6.85352 62.7352 7.25672C63.0211 7.65991 63.0795 8.17242 62.891 8.62501L55.9763 25.2285C55.9736 25.2351 55.9708 25.2417 55.968 25.2482C55.9657 25.2534 55.9634 25.2586 55.9611 25.2637C55.2719 26.8015 53.6614 27.9175 51.7829 27.9175H37.6464C36.7977 27.9175 36.1098 27.2596 36.1098 26.4481C36.1098 25.6366 36.7977 24.9788 37.6464 24.9788H51.7829C52.3576 24.9788 52.8936 24.632 53.1299 24.1206L59.1976 9.55074H3.71702L9.12535 24.0313C9.36252 24.6267 9.8627 24.9788 10.6024 24.9788H25.3537C26.2023 24.9788 26.8903 25.6366 26.8903 26.4481C26.8903 27.2596 26.2023 27.9175 25.3537 27.9175H10.6024C8.58017 27.9175 6.93047 26.8039 6.24419 25.0539L6.23587 25.0322L0.0895284 8.57559C-0.0785367 8.1256 -0.00728135 7.62557 0.280567 7.23499Z" fill="#4A4A4A"/>
<path d="M36.1096 30.1214H26.8901C25.9681 30.1214 25.3535 29.5336 25.3535 28.652V24.244C25.3535 23.3624 25.9681 22.7747 26.8901 22.7747H36.1096C37.0316 22.7747 37.6462 23.3624 37.6462 24.244V28.652C37.6462 29.5336 37.0316 30.1214 36.1096 30.1214Z" fill="#E15A2B"/>
<path fill-rule="evenodd" clip-rule="evenodd" d="M26.8896 24.2441V28.6521H36.1091V24.2441H26.8896ZM24.689 22.1398C25.2849 21.5701 26.0794 21.3054 26.8896 21.3054H36.1091C36.9193 21.3054 37.7138 21.5701 38.3096 22.1398C38.9055 22.7096 39.1823 23.4694 39.1823 24.2441V28.6521C39.1823 29.4268 38.9055 30.1866 38.3096 30.7564C37.7138 31.3261 36.9193 31.5908 36.1091 31.5908H26.8896C26.0794 31.5908 25.2849 31.3261 24.689 30.7564C24.0932 30.1866 23.8164 29.4268 23.8164 28.6521V24.2441C23.8164 23.4694 24.0932 22.7096 24.689 22.1398Z" fill="#E15A2B"/>
</g>
<defs>
<clipPath id="clip0">
<rect width="63" height="46.2842" fill="white"/>
</clipPath>
</defs>
<script xmlns=""/></svg>