<svg xmlns="http://www.w3.org/2000/svg" width="63" height="53" viewBox="0 0 63 53" fill="none"><script xmlns=""/>
<g clip-path="url(#clip0)">
<path d="M61.3845 6.61035H1.61523V18.7808H61.3845V6.61035Z" fill="#E15A2B"/>
<path fill-rule="evenodd" clip-rule="evenodd" d="M0 6.61051C0 5.71431 0.723232 4.98779 1.61538 4.98779H61.3846C62.2768 4.98779 63 5.71431 63 6.61051V50.424C63 51.3202 62.2768 52.0467 61.3846 52.0467H1.61538C0.723232 52.0467 0 51.3202 0 50.424V6.61051ZM3.23077 8.23324V48.8013H59.7692V8.23324H3.23077Z" fill="#4A4A4A"/>
<path fill-rule="evenodd" clip-rule="evenodd" d="M12.1154 0.930908C13.0075 0.930908 13.7308 1.65743 13.7308 2.55363V9.04452C13.7308 9.94072 13.0075 10.6672 12.1154 10.6672C11.2232 10.6672 10.5 9.94072 10.5 9.04452V2.55363C10.5 1.65743 11.2232 0.930908 12.1154 0.930908Z" fill="#4A4A4A"/>
<path fill-rule="evenodd" clip-rule="evenodd" d="M50.8849 0.930908C51.7771 0.930908 52.5003 1.65743 52.5003 2.55363V9.04452C52.5003 9.94072 51.7771 10.6672 50.8849 10.6672C49.9928 10.6672 49.2695 9.94072 49.2695 9.04452V2.55363C49.2695 1.65743 49.9928 0.930908 50.8849 0.930908Z" fill="#4A4A4A"/>
<path d="M30.1552 33.7347C30.1552 36.5671 29.5717 38.7335 28.4046 40.2341C27.2376 41.7346 25.5291 42.4849 23.2791 42.4849C21.0571 42.4849 19.3579 41.7487 18.1815 40.2763C17.0052 38.8039 16.403 36.6937 16.375 33.9458V30.1756C16.375 27.3151 16.9632 25.144 18.1395 23.6622C19.3252 22.1804 21.0291 21.4395 23.2511 21.4395C25.4731 21.4395 27.1723 22.1757 28.3486 23.6481C29.525 25.1112 30.1272 27.2166 30.1552 29.9646V33.7347ZM26.1079 29.5988C26.1079 27.9013 25.8745 26.668 25.4077 25.899C24.9503 25.1205 24.2314 24.7313 23.2511 24.7313C22.2988 24.7313 21.5939 25.1018 21.1364 25.8427C20.6883 26.5742 20.4502 27.7231 20.4222 29.2893V34.2693C20.4222 35.9387 20.6463 37.1814 21.0944 37.9973C21.5519 38.8039 22.2801 39.2071 23.2791 39.2071C24.2687 39.2071 24.9829 38.8179 25.4217 38.0395C25.8605 37.2611 26.0893 36.07 26.1079 34.4663V29.5988Z" fill="#4A4A4A"/>
<path d="M42.731 42.2036H38.6837V26.532L33.8523 28.0373V24.7313L42.2968 21.6927H42.731V42.2036Z" fill="#4A4A4A"/>
</g>
<defs>
<clipPath id="clip0">
<rect width="63" height="51.1157" fill="white" transform="translate(0 0.930908)"/>
</clipPath>
</defs>
<script xmlns=""/></svg>