<svg xmlns="http://www.w3.org/2000/svg" width="127" height="87" viewBox="0 0 127 87" fill="none"><script xmlns=""/>
<g clip-path="url(#clip0)">
<path fill-rule="evenodd" clip-rule="evenodd" d="M30.6349 10.1217L30.1545 12.8142C30.6349 10.1217 30.6345 10.1217 30.6349 10.1217L30.647 10.1237L30.6754 10.1285L30.7807 10.1466C30.8721 10.1623 31.0055 10.1856 31.1786 10.2164C31.5247 10.2782 32.0297 10.3703 32.6752 10.4937C33.966 10.7405 35.8197 11.1126 38.0887 11.6164C42.623 12.6233 48.8346 14.1607 55.5357 16.2833C57.0188 16.7531 57.8273 18.2965 57.3414 19.7304C56.8554 21.1644 55.2592 21.946 53.776 21.4762C47.2797 19.4185 41.2406 17.9231 36.8235 16.9423C34.6882 16.4681 32.9364 16.1152 31.7007 15.8778L17.4334 42.646C17.809 43.0186 18.2425 43.448 18.7128 43.9131C20.2618 45.4448 22.2027 47.3553 23.7878 48.8878C24.8914 49.9548 24.8914 51.6848 23.7878 52.7518C22.6842 53.8188 20.8949 53.8188 19.7913 52.7518C18.183 51.1969 16.2241 49.2686 14.6715 47.7333C13.8943 46.9648 13.2172 46.293 12.7343 45.8132L11.9625 45.0457C11.1176 44.2037 10.922 42.9334 11.4778 41.8906L27.6424 11.5626C28.2076 10.5022 29.419 9.91893 30.6349 10.1217Z" fill="#4A4A4A"/>
<path fill-rule="evenodd" clip-rule="evenodd" d="M89.4644 41.0962C90.1024 39.719 91.7744 39.1028 93.1987 39.7197L99.4442 42.4246C99.5301 42.4618 99.6141 42.5032 99.6958 42.5485C101.714 43.6687 103.284 45.3363 103.951 47.4405C104.627 49.5729 104.269 51.8222 103.054 53.8515C100.515 58.1223 94.94 59.5321 90.5517 57.0964L84.3051 53.6259C82.9519 52.874 82.4853 51.2039 83.263 49.8956C84.0406 48.5872 85.768 48.1361 87.1212 48.8879L93.3656 52.3573C95.0795 53.3079 97.1894 52.7529 98.1553 51.1261L98.161 51.1166C98.6962 50.2236 98.7043 49.5376 98.5471 49.0418C98.3865 48.5352 97.949 47.9087 96.9919 47.3502L90.8881 44.7066C89.4637 44.0897 88.8263 42.4733 89.4644 41.0962Z" fill="#4A4A4A"/>
<path fill-rule="evenodd" clip-rule="evenodd" d="M82.7826 49.5952C83.5603 48.2869 85.2877 47.8358 86.6409 48.5876L92.8853 52.057C92.8856 52.0572 92.8849 52.0568 92.8853 52.057C97.3056 54.5112 98.7664 59.9035 96.2464 64.1475C93.7083 68.4221 88.1311 69.8338 83.7411 67.3972L77.4946 63.9267C76.1414 63.1748 75.6748 61.5047 76.4524 60.1964C77.2301 58.888 78.9575 58.4369 80.3107 59.1888L86.555 62.6581C88.2692 63.6095 90.3786 63.054 91.3448 61.4269C92.3288 59.7697 91.7542 57.7302 90.0713 56.7961L83.8248 53.3255C82.4716 52.5737 82.005 50.9036 82.7826 49.5952Z" fill="#4A4A4A"/>
<path fill-rule="evenodd" clip-rule="evenodd" d="M73.9936 59.0487C74.7712 57.7404 76.4986 57.2893 77.8518 58.0411L84.0962 61.5105C88.5166 63.9647 89.9774 69.357 87.4574 73.601C84.9193 77.8756 79.3421 79.2873 74.952 76.8507L68.7055 73.3802C67.3523 72.6283 66.8857 70.9582 67.6633 69.6499C68.441 68.3415 70.1684 67.8904 71.5216 68.6423L77.766 72.1116C79.4801 73.063 81.5896 72.5075 82.5557 70.8804C83.5397 69.2232 82.9652 67.1837 81.2823 66.2496L75.0357 62.779C73.6825 62.0272 73.2159 60.3571 73.9936 59.0487Z" fill="#4A4A4A"/>
<path fill-rule="evenodd" clip-rule="evenodd" d="M64.3002 67.6282C65.0779 66.3199 66.8053 65.8687 68.1585 66.6206L74.4028 70.09C74.4032 70.0902 74.4025 70.0898 74.4028 70.09C78.8232 72.5441 80.284 77.9365 77.764 82.1805C75.2259 86.455 69.6487 87.8668 65.2587 85.4302L59.0122 81.9596C57.6589 81.2078 57.1923 79.5377 57.97 78.2293C58.7476 76.921 60.475 76.4699 61.8283 77.2217L68.0726 80.6911C69.7868 81.6425 71.8962 81.087 72.8623 79.4599C73.8464 77.8026 73.2718 75.7631 71.5889 74.8291L65.3424 71.3585C63.9892 70.6067 63.5226 68.9365 64.3002 67.6282Z" fill="#4A4A4A"/>
<path fill-rule="evenodd" clip-rule="evenodd" d="M27.9744 48.9715L22.005 54.2256C20.9059 55.2137 20.8504 56.8871 21.845 57.9137C22.9057 59.0085 24.6625 59.0484 25.7209 58.1028L25.7363 58.089L31.7101 52.8311C32.8288 51.8062 32.8646 50.1264 31.8783 49.1084C31.8605 49.09 31.8429 49.0714 31.8257 49.0526C30.9454 48.092 29.2186 47.9072 27.9744 48.9715ZM36.0298 45.4003C32.9519 42.0737 27.6404 41.9384 24.2039 44.9006L18.191 50.1928L18.1755 50.2066C14.8156 53.2083 14.5341 58.3611 17.7201 61.6494C20.8393 64.869 26.1413 65.1591 29.5482 62.1237L35.5324 56.8566L35.5619 56.8303C38.8871 53.8188 39.1942 48.6966 36.0298 45.4003Z" fill="#4A4A4A"/>
<path fill-rule="evenodd" clip-rule="evenodd" d="M91.6322 12.4819C91.6328 12.4821 91.6334 12.4822 90.8571 15.1094L91.6322 12.4819C92.0791 12.6054 92.489 12.8339 92.8229 13.1465L116.024 34.8679C116.592 35.399 116.903 36.1354 116.884 36.8986C116.864 37.6618 116.515 38.3823 115.921 38.8855L114.058 36.8308C115.921 38.8855 115.921 38.8852 115.921 38.8855L115.918 38.8884L115.886 38.9147L115.798 38.9891C115.721 39.0531 115.61 39.1452 115.469 39.2616C115.186 39.4943 114.781 39.8246 114.281 40.2211C113.284 41.0121 111.901 42.0758 110.369 43.1568C108.845 44.2316 107.127 45.357 105.464 46.2502C103.895 47.0935 102.026 47.9264 100.294 48.0767C99.8548 48.1148 99.4123 48.053 99.0021 47.8961L100.042 45.3554C99.0021 47.8961 99.0023 47.8962 99.0021 47.8961L98.9691 47.8834L98.8792 47.8489L98.5396 47.7172C98.2458 47.6029 97.8217 47.4367 97.2965 47.2279C96.2466 46.8106 94.7893 46.2216 93.1581 45.5343C89.9302 44.1743 85.8973 42.378 83.0142 40.746L83.0058 40.7412C78.7189 38.2954 74.0277 34.3456 70.5006 31.1214C68.7149 29.489 67.1856 28.0034 66.1019 26.9251C66.076 26.8994 66.0504 26.8739 66.0251 26.8486C61.5573 29.9431 56.5093 32.7505 53.3694 34.4785C50.6448 35.9779 46.9466 35.9523 44.3182 33.8251C40.5447 30.832 40.3949 25.3268 44.0022 22.1794C44.1273 22.0703 44.2621 21.9722 44.4052 21.8863L60.7774 12.0614C61.2167 11.7889 61.9812 11.3336 63.0017 11.1461C69.8673 9.70984 77.0367 10.0667 82.3955 10.7437C85.1006 11.0855 87.3898 11.5149 89.0087 11.8603C89.8191 12.0332 90.4638 12.1855 90.9113 12.2961C91.1351 12.3514 91.3098 12.3964 91.4315 12.4282L91.5737 12.466L91.614 12.4769L91.6264 12.4803L91.6322 12.4819ZM68.9671 21.9183C69.2468 22.2048 69.65 22.6142 70.1553 23.1169C71.1973 24.1536 72.6688 25.583 74.3837 27.1507C77.8568 30.3256 82.1645 33.9154 85.8742 36.0327C88.4452 37.4876 92.2096 39.1738 95.4161 40.5248C97.003 41.1934 98.4229 41.7673 99.4458 42.1739C99.7871 42.3096 100.084 42.4266 100.327 42.522C100.873 42.3642 101.673 42.0358 102.719 41.4738C104.098 40.7329 105.608 39.751 107.037 38.7425C108.062 38.0197 109.021 37.3004 109.83 36.675L89.4209 17.5681C89.0314 17.4727 88.4799 17.3434 87.7908 17.1964C86.3003 16.8784 84.1756 16.4796 81.6632 16.1622C76.5986 15.5223 70.1379 15.2372 64.1588 16.495C64.1387 16.4992 64.1185 16.5033 64.0983 16.5071C64.0547 16.5274 63.9772 16.5688 63.8145 16.67L63.7766 16.6931L47.644 26.3743C46.771 27.2841 46.837 28.7593 47.9084 29.6046L47.9419 29.6315C48.5341 30.1137 49.6301 30.2486 50.5734 29.7295C54.2635 27.6986 60.1685 24.4002 64.7046 20.9862C65.5565 20.345 66.7117 20.2291 67.6816 20.6875C68.2488 20.9556 68.6947 21.3927 68.9671 21.9183Z" fill="#4A4A4A"/>
<path fill-rule="evenodd" clip-rule="evenodd" d="M48.2012 64.2054C47.1597 63.1167 45.4523 63.0722 44.3798 64.0436L44.3502 64.0699L38.3683 69.3351C37.2692 70.3232 37.2137 71.9966 38.2083 73.0232L38.2214 73.0368L38.2214 73.0368C39.2426 74.1053 40.978 74.161 42.0419 73.1976L42.0714 73.1712L48.0534 67.906C49.1524 66.9179 49.2079 65.2445 48.2133 64.2179L48.2012 64.2054L48.2012 64.2054ZM52.3443 60.4885C49.2076 57.2167 43.923 56.9857 40.532 60.0409L34.5543 65.3023L34.5542 65.3023L34.5388 65.3161C31.1812 68.3157 30.8978 73.4635 34.0768 76.7522C37.1776 79.9891 42.4901 80.263 45.8896 77.2003L51.8674 71.9388L51.8674 71.9389L51.8828 71.9251C55.2406 68.9253 55.5239 63.7771 52.3443 60.4885Z" fill="#4A4A4A"/>
<path fill-rule="evenodd" clip-rule="evenodd" d="M56.2945 71.6223C55.2347 70.5284 53.5168 70.4917 52.4609 71.4479L52.4372 71.4694L52.4371 71.4692L48.7691 74.7155C47.6677 75.7033 47.6114 77.3784 48.6068 78.4057L48.6199 78.4192L48.6198 78.4193C49.6411 79.4878 51.3765 79.5435 52.4403 78.5801L52.464 78.5586L52.4641 78.5587L56.1322 75.3125C57.2335 74.3246 57.2898 72.6496 56.2945 71.6223ZM48.61 67.448C52.0196 64.3731 57.3007 64.6675 60.4194 67.8866C63.6054 71.1749 63.3239 76.3277 59.964 79.3294L59.9542 79.3381L59.9542 79.3381L56.2911 82.58C52.8917 85.6456 47.5769 85.3725 44.4753 82.1347C41.2963 78.846 41.5797 73.6982 44.9372 70.6986L44.947 70.6898L44.947 70.6899L48.61 67.448Z" fill="#4A4A4A"/>
<path fill-rule="evenodd" clip-rule="evenodd" d="M42.1854 54.7269C41.1526 53.6204 39.533 53.5378 38.3749 54.6029L38.3401 54.6343L29.5563 62.4441C29.5556 62.4447 29.5549 62.4453 29.5542 62.4459C28.451 63.4335 28.3941 65.11 29.39 66.1379L29.4031 66.1514L29.403 66.1515C30.4243 67.22 32.1597 67.2757 33.2235 66.3122L33.2422 66.2953L33.2423 66.2954L42.0547 58.458C42.0553 58.4575 42.0559 58.4569 42.0566 58.4564C43.1599 57.4688 43.2169 55.7923 42.221 54.7643L42.1854 54.7269ZM46.3639 51.0472C43.218 47.6968 37.9686 47.4531 34.4984 50.6262L25.7254 58.4263L25.7254 58.4263L25.7204 58.4307C22.3629 61.4304 22.0795 66.5782 25.2585 69.8668C28.361 73.1056 33.6778 73.3779 37.0771 70.3097L45.8858 62.4756L45.8905 62.4714C49.244 59.4754 49.5308 54.3364 46.3639 51.0472Z" fill="#4A4A4A"/>
<path d="M23.7112 4.26233L1.89453 44.727L13.9615 50.7926L35.7499 10.3006L23.7112 4.26233Z" fill="#E15A2B"/>
<path fill-rule="evenodd" clip-rule="evenodd" d="M23.1097 2.42163L37.6559 9.7176L14.5627 52.6345L-0.0126953 45.308L23.1097 2.42163ZM24.3119 6.10268L3.80095 44.1455L13.3596 48.9503L33.8431 10.8833L24.3119 6.10268Z" fill="#E15A2B"/>
<path d="M91.6201 1.93982L82.0117 11.2295L115.387 43.4973L124.995 34.2077L91.6201 1.93982Z" fill="#E15A2B"/>
<path fill-rule="evenodd" clip-rule="evenodd" d="M91.6193 0.00805664L126.993 34.2079L115.386 45.4296L80.0127 11.2297L91.6193 0.00805664ZM91.6193 3.87204L84.0092 11.2297L115.386 41.5656L122.996 34.2079L91.6193 3.87204Z" fill="#E15A2B"/>
</g>
<defs>
<clipPath id="clip0">
<rect width="127" height="86.6396" fill="white"/>
</clipPath>
</defs>
<script xmlns=""/></svg>