<svg xmlns="http://www.w3.org/2000/svg" width="37" height="45" viewBox="0 0 37 59" fill="none"><script xmlns=""/>
<g clip-path="url(#clip0)">
<path fill-rule="evenodd" clip-rule="evenodd" d="M18.4206 3.75891C10.0873 3.75891 3.17597 10.5187 3.17597 18.6692C3.17597 19.527 2.465 20.2224 1.58798 20.2224C0.710964 20.2224 0 19.527 0 18.6692C0 8.80312 8.33328 0.652588 18.4206 0.652588C28.5079 0.652588 36.8412 8.80312 36.8412 18.6692C36.8412 28.0125 29.3678 35.8172 20.0086 36.6182V48.8005C20.0086 49.6583 19.2976 50.3537 18.4206 50.3537C17.5436 50.3537 16.8326 49.6583 16.8326 48.8005V33.5796H18.4206C26.7539 33.5796 33.6652 26.8198 33.6652 18.6692C33.6652 10.5187 26.7539 3.75891 18.4206 3.75891Z" fill="#4A4A4A"/>
<path d="M18.42 57.964C19.297 57.964 20.008 57.2686 20.008 56.4108C20.008 55.553 19.297 54.8577 18.42 54.8577C17.543 54.8577 16.832 55.553 16.832 56.4108C16.832 57.2686 17.543 57.964 18.42 57.964Z" fill="#E15A2B"/>
<path fill-rule="evenodd" clip-rule="evenodd" d="M18.421 55.6345C17.9825 55.6345 17.627 55.9821 17.627 56.411C17.627 56.8399 17.9825 57.1876 18.421 57.1876C18.8595 57.1876 19.215 56.8399 19.215 56.411C19.215 55.9821 18.8595 55.6345 18.421 55.6345ZM16.0391 56.411C16.0391 55.1244 17.1055 54.0813 18.421 54.0813C19.7366 54.0813 20.803 55.1244 20.803 56.411C20.803 57.6977 19.7366 58.7408 18.421 58.7408C17.1055 58.7408 16.0391 57.6977 16.0391 56.411Z" fill="#E15A2B"/>
</g>
<defs>
<clipPath id="clip0">
<rect width="37" height="58.0881" fill="white" transform="translate(0 0.652588)"/>
</clipPath>
</defs>
<script xmlns=""/></svg>