<svg xmlns="http://www.w3.org/2000/svg" width="92" height="92" viewBox="0 0 92 92" fill="none"><script xmlns=""/>
<path fill-rule="evenodd" clip-rule="evenodd" d="M42.3684 4.8421C21.6739 4.8421 4.8421 21.6739 4.8421 42.3684C4.8421 63.0629 21.6739 79.8947 42.3684 79.8947C46.2977 79.8947 49.9005 79.432 53.2239 78.3242C54.4924 77.9014 55.8634 78.5869 56.2863 79.8554C56.7091 81.1239 56.0236 82.495 54.7551 82.9179C50.8153 84.2311 46.6707 84.7368 42.3684 84.7368C18.9997 84.7368 0 65.7371 0 42.3684C0 18.9997 18.9997 0 42.3684 0C65.7371 0 84.7368 18.9997 84.7368 42.3684C84.7368 46.6707 84.2311 50.8153 82.9179 54.7551C82.495 56.0236 81.1239 56.7091 79.8554 56.2863C78.5869 55.8634 77.9014 54.4924 78.3242 53.2239C79.432 49.9005 79.8947 46.2977 79.8947 42.3684C79.8947 21.6739 63.0629 4.8421 42.3684 4.8421Z" fill="#4A4A4A"/>
<path d="M46.1719 51.9261H37.7975V57.9339H31.2436V51.9261H25.9121V46.6466H31.2436V43.8639H25.9121V38.5844H31.2436V20.0671H45.7298C49.9083 20.0671 53.2459 21.1594 55.7426 23.344C58.2393 25.5113 59.4877 28.3981 59.4877 32.0045C59.4877 35.6802 58.3 38.567 55.9247 40.6649C53.5493 42.7455 50.2464 43.8118 46.0158 43.8639H37.7975V46.6466H46.1719V51.9261ZM37.7975 38.5844H45.6257C47.9837 38.5844 49.7869 38.0382 51.0353 36.9459C52.2836 35.8536 52.9078 34.2238 52.9078 32.0565C52.9078 30.1146 52.2923 28.5282 51.0613 27.2971C49.8476 26.0661 48.1658 25.4246 46.0158 25.3726H37.7975V38.5844Z" fill="#4A4A4A"/>
<path d="M72.1476 91.9999C83.1119 91.9999 92.0002 83.1116 92.0002 72.1473C92.0002 61.183 83.1119 52.2947 72.1476 52.2947C61.1832 52.2947 52.2949 61.183 52.2949 72.1473C52.2949 83.1116 61.1832 91.9999 72.1476 91.9999Z" fill="#E15A2B"/>
<path fill-rule="evenodd" clip-rule="evenodd" d="M84.0284 63.6565C84.9738 64.602 84.9738 66.1349 84.0284 67.0804L70.7126 80.3962C69.7671 81.3416 68.2342 81.3416 67.2887 80.3962L60.0255 73.133C59.08 72.1875 59.08 70.6546 60.0255 69.7091C60.971 68.7636 62.5039 68.7636 63.4494 69.7091L69.0006 75.2603L80.6045 63.6565C81.5499 62.711 83.0829 62.711 84.0284 63.6565Z" fill="#4A4A4A"/>
<script xmlns=""/></svg>