<svg xmlns="http://www.w3.org/2000/svg" width="69" height="68" viewBox="0 0 69 68" fill="none"><script xmlns=""/>
<g clip-path="url(#clip0)">
<path fill-rule="evenodd" clip-rule="evenodd" d="M10.0367 28.5283L9.65763 26.7857C8.69022 26.994 8.0757 27.943 8.28507 28.9055C8.49439 29.8678 9.44803 30.4791 10.4153 30.2712L10.4264 30.2688L10.471 30.2595C10.5117 30.251 10.5743 30.2382 10.6572 30.2218C10.8233 30.1888 11.0708 30.1412 11.3885 30.0843C12.0242 29.9704 12.9385 29.8196 14.0407 29.6747C16.2539 29.3839 19.184 29.1224 22.1201 29.2183C25.0901 29.3154 27.8897 29.7743 29.952 30.8001C31.9212 31.7797 33.1404 33.2167 33.3426 35.4629C33.4504 36.6603 33.2493 37.5647 32.8809 38.2923C32.5056 39.0334 31.9016 39.6984 31.0483 40.3217C29.2743 41.6174 26.7444 42.5221 23.8265 43.5392C23.7622 43.5617 23.6976 43.5842 23.6329 43.6067C20.9043 44.5574 17.8555 45.6197 15.5011 47.2569C12.9752 49.0134 11.112 51.5272 11.112 55.2738C11.112 57.382 12.0721 59.1287 13.52 60.5094C14.9359 61.8596 16.8612 62.91 18.9958 63.7471C23.2686 65.4227 28.856 66.4238 34.3008 67.0307C39.7752 67.6408 45.2345 67.8655 49.3155 67.9385C51.3585 67.9751 53.062 67.9737 54.2565 67.9631C54.8539 67.9578 55.3243 67.9503 55.6466 67.944C55.8078 67.9408 55.9319 67.938 56.0164 67.9359L56.1132 67.9335L56.1386 67.9328L56.1455 67.9326L56.1475 67.9325C56.1481 67.9325 56.1485 67.9325 56.0965 66.1502L56.1475 67.9325C57.1369 67.9039 57.9167 67.0828 57.8879 66.0985C57.8592 65.1141 57.0338 64.3394 56.0444 64.368L56.0385 64.3681L56.0171 64.3687L55.9287 64.3709C55.8498 64.3729 55.7314 64.3756 55.5762 64.3786C55.2658 64.3847 54.8083 64.3921 54.2246 64.3972C53.0571 64.4075 51.3861 64.4089 49.3799 64.3731C45.3623 64.3012 40.0236 64.0801 34.6999 63.4868C29.3467 62.8901 24.136 61.9298 20.3103 60.4295C18.3956 59.6786 16.9465 58.8372 16.0003 57.935C15.0862 57.0633 14.6965 56.1966 14.6965 55.2738C14.6965 52.958 15.7456 51.4377 17.5546 50.1798C19.4793 48.8414 22.0987 47.9202 25.0118 46.9047L25.109 46.8708C27.8563 45.9132 30.9041 44.8509 33.1695 43.1962C34.3492 42.3346 35.389 41.2653 36.082 39.8968C36.7819 38.5146 37.0737 36.9339 36.9127 35.1448C36.5772 31.4179 34.3912 29.0214 31.555 27.6106C28.812 26.2461 25.4061 25.7577 22.2378 25.6542C19.0355 25.5495 15.8945 25.8341 13.5712 26.1394C12.4052 26.2927 11.4349 26.4525 10.753 26.5747C10.4119 26.6358 10.1424 26.6876 9.95613 26.7246C9.86297 26.7431 9.79056 26.7579 9.74034 26.7683L9.68182 26.7805L9.66537 26.784L9.6604 26.7851C9.6598 26.7852 9.65763 26.7857 10.0367 28.5283Z" fill="#E15A2B"/>
<path fill-rule="evenodd" clip-rule="evenodd" d="M55.9176 34.9474C50.7949 34.9474 46.5981 38.982 46.5981 44.2191C46.5981 45.368 47.1543 47.2056 48.2035 49.5169C49.221 51.7586 50.5926 54.2156 51.9862 56.5153C53.3761 58.809 54.7688 60.9151 55.8155 62.4495C55.9056 62.5815 55.993 62.7092 56.0776 62.8324C56.1618 62.7067 56.2489 62.5763 56.3385 62.4415C57.3692 60.8924 58.7406 58.7686 60.1094 56.4624C61.4817 54.1503 62.8329 51.6856 63.8355 49.4492C64.8709 47.1398 65.4163 45.3249 65.4163 44.2191C65.4163 39.1783 61.0586 34.9474 55.9176 34.9474ZM56.0968 65.9721C54.6452 67.0179 54.6451 67.0177 54.6449 67.0174L54.6354 67.0044L54.6096 66.9687L54.5118 66.833C54.4268 66.7146 54.303 66.5415 54.1461 66.3197C53.8323 65.8761 53.3853 65.2374 52.8496 64.452C51.7793 62.8829 50.3493 60.7209 48.9165 58.3564C47.4873 55.9979 46.0362 53.4067 44.9367 50.9847C43.8689 48.6322 43.0137 46.1906 43.0137 44.2191C43.0137 36.9751 48.8532 31.3813 55.9176 31.3813C62.9635 31.3813 69.0007 37.1354 69.0007 44.2191C69.0007 46.1446 68.1571 48.5643 67.109 50.9019C66.0282 53.3126 64.6015 55.9072 63.1959 58.2756C61.7867 60.6498 60.3802 62.8275 59.3275 64.4099C58.8006 65.2018 58.361 65.8465 58.0524 66.2943C57.8981 66.5182 57.7764 66.6931 57.6929 66.8126L57.5968 66.9496L57.5714 66.9855L57.5628 66.9978C57.5626 66.998 57.5619 66.999 56.0968 65.9721ZM56.0968 65.9721L57.5628 66.9978C57.2294 67.4685 56.6872 67.7513 56.1084 67.7551C55.5296 67.7588 54.9843 67.4838 54.6449 67.0174L56.0968 65.9721Z" fill="#4A4A4A"/>
<path d="M55.916 48.4982C57.9946 48.4982 59.6796 46.8218 59.6796 44.7539C59.6796 42.6859 57.9946 41.0095 55.916 41.0095C53.8374 41.0095 52.1523 42.6859 52.1523 44.7539C52.1523 46.8218 53.8374 48.4982 55.916 48.4982Z" fill="#E15A2B"/>
<path fill-rule="evenodd" clip-rule="evenodd" d="M55.9172 42.7926C54.8284 42.7926 53.9457 43.6707 53.9457 44.754C53.9457 45.8372 54.8284 46.7153 55.9172 46.7153C57.006 46.7153 57.8886 45.8372 57.8886 44.754C57.8886 43.6707 57.006 42.7926 55.9172 42.7926ZM50.3613 44.754C50.3613 41.7013 52.8488 39.2266 55.9172 39.2266C58.9856 39.2266 61.473 41.7013 61.473 44.754C61.473 47.8066 58.9856 50.2813 55.9172 50.2813C52.8488 50.2813 50.3613 47.8066 50.3613 44.754Z" fill="#E15A2B"/>
<path fill-rule="evenodd" clip-rule="evenodd" d="M10.0364 3.56606C6.54565 3.56606 3.58442 6.51213 3.58442 9.98496C3.58442 10.6867 3.94842 11.9424 4.71546 13.6428C5.44904 15.2691 6.44163 17.0708 7.45546 18.7701C8.37794 20.3163 9.30264 21.7523 10.0364 22.8578C10.7701 21.7523 11.6948 20.3163 12.6173 18.7701C13.6311 17.0708 14.6237 15.2691 15.3573 13.6428C16.1243 11.9424 16.4883 10.6867 16.4883 9.98496C16.4883 6.51213 13.5271 3.56606 10.0364 3.56606ZM10.0364 26.0322C8.57344 27.0622 8.57331 27.062 8.57316 27.0618L8.56598 27.0517L8.54678 27.0246L8.47467 26.9222C8.41213 26.8332 8.32127 26.7032 8.20614 26.5369C7.97595 26.2044 7.6484 25.7262 7.2559 25.1391C6.47195 23.9663 5.42387 22.3515 4.37311 20.5902C3.3259 18.835 2.25745 16.9034 1.44526 15.1029C0.666517 13.3766 0 11.512 0 9.98496C0 4.54265 4.56604 0 10.0364 0C15.5067 0 20.0727 4.54265 20.0727 9.98496C20.0727 11.512 19.4062 13.3766 18.6275 15.1029C17.8153 16.9034 16.7468 18.835 15.6996 20.5902C14.6489 22.3515 13.6008 23.9663 12.8168 25.1391C12.4243 25.7262 12.0968 26.2044 11.8666 26.5369C11.7515 26.7032 11.6606 26.8332 11.5981 26.9222L11.526 27.0246L11.5068 27.0517L11.5 27.0612C11.4999 27.0614 11.4993 27.0622 10.0364 26.0322ZM10.0364 26.0322L11.5 27.0612C11.1641 27.5334 10.6179 27.8152 10.0364 27.8152C9.4548 27.8152 8.90911 27.5341 8.57316 27.0618L10.0364 26.0322Z" fill="#4A4A4A"/>
<path d="M9.86753 13.5819C11.4512 13.5819 12.7351 12.3046 12.7351 10.7291C12.7351 9.15348 11.4512 7.87622 9.86753 7.87622C8.28384 7.87622 7 9.15348 7 10.7291C7 12.3046 8.28384 13.5819 9.86753 13.5819Z" fill="#E15A2B"/>
<path fill-rule="evenodd" clip-rule="evenodd" d="M10.0367 9.27162C9.44281 9.27162 8.96137 9.75059 8.96137 10.3414C8.96137 10.9323 9.44281 11.4113 10.0367 11.4113C10.6306 11.4113 11.112 10.9323 11.112 10.3414C11.112 9.75059 10.6306 9.27162 10.0367 9.27162ZM5.37695 10.3414C5.37695 7.78112 7.46319 5.70557 10.0367 5.70557C12.6102 5.70557 14.6964 7.78112 14.6964 10.3414C14.6964 12.9018 12.6102 14.9773 10.0367 14.9773C7.46319 14.9773 5.37695 12.9018 5.37695 10.3414Z" fill="#E15A2B"/>
</g>
<defs>
<clipPath id="clip0">
<rect width="69" height="67.9333" fill="white"/>
</clipPath>
</defs>
<script xmlns=""/></svg>