<svg width="50" height="50" viewBox="0 0 50 50" fill="none" xmlns="http://www.w3.org/2000/svg">
<path d="M49.3142 43.4308L28.3638 2.51376C27.5456 0.916208 26.3195 0 25 0C23.6801 0 22.4541 0.916208 21.6362 2.51376L0.685848 43.4308C-0.132024 45.028 -0.222814 46.6836 0.437129 47.9723C1.09669 49.261 2.41353 50 4.04927 50H45.9503C47.5865 50 48.9029 49.261 49.5629 47.9723C50.2228 46.6832 50.132 45.028 49.3142 43.4308ZM47.0257 46.3201C46.9296 46.5072 46.5599 46.6961 45.9503 46.6961H4.04965C3.43968 46.6961 3.07042 46.5077 2.97467 46.3201C2.87854 46.133 2.91859 45.6779 3.22339 45.0826L24.1737 4.16552C24.4785 3.5702 24.8081 3.30394 24.9996 3.30394C25.1915 3.30394 25.5215 3.5702 25.8263 4.16552L46.7766 45.0826C47.0814 45.6779 47.1215 46.133 47.0257 46.3201Z" fill="white"/>
<path d="M24.6269 11.9402C22.5694 11.9402 20.8955 13.8108 20.8955 16.1099V30.1589C20.8955 32.4581 22.5694 34.3282 24.6269 34.3282C26.6843 34.3282 28.3582 32.4581 28.3582 30.1589V16.1099C28.3582 13.8108 26.6843 11.9402 24.6269 11.9402ZM25.4953 30.1589C25.4953 30.6942 25.1058 31.1294 24.6269 31.1294C24.1479 31.1294 23.7584 30.6942 23.7584 30.1589V16.1099C23.7584 15.5747 24.1479 15.1394 24.6269 15.1394C25.1058 15.1394 25.4953 15.5747 25.4953 16.1099V30.1589Z" fill="white"/>
<path d="M24.7714 36.5671C22.6343 36.5671 20.8955 38.3059 20.8955 40.443C20.8955 42.5798 22.6343 44.3185 24.7714 44.3185C26.9085 44.3185 28.6473 42.5798 28.6473 40.443C28.6473 38.3059 26.9085 36.5671 24.7714 36.5671ZM24.7714 41.3447C24.2739 41.3447 23.8693 40.9401 23.8693 40.4426C23.8693 39.9455 24.2739 39.5409 24.7714 39.5409C25.2689 39.5409 25.6735 39.9455 25.6735 40.4426C25.6735 40.9401 25.2689 41.3447 24.7714 41.3447Z" fill="white"/>
</svg>
