<svg width="60" height="60" viewBox="0 0 60 60" fill="none" xmlns="http://www.w3.org/2000/svg">
<path d="M58.2422 4.33048H50.5426C50.5705 3.47766 50.5861 2.6198 50.5861 1.75783C50.5861 0.786902 49.7987 0 48.8283 0H11.1717C10.2013 0 9.41391 0.786902 9.41391 1.75783C9.41391 2.6198 9.42947 3.47766 9.4574 4.33048H1.75781C0.786896 4.33048 0 5.11738 0 6.0883C0 13.9646 2.05856 21.3956 5.7962 27.0128C9.49081 32.566 14.4122 35.7512 19.7287 36.0611C20.934 37.3726 22.2079 38.4419 23.535 39.2577V47.0704H20.5861C17.021 47.0704 14.1211 49.9708 14.1211 53.5354V56.4843H13.9961C13.0252 56.4843 12.2383 57.2717 12.2383 58.2422C12.2383 59.2131 13.0252 60 13.9961 60H46.0039C46.9748 60 47.7617 59.2131 47.7617 58.2422C47.7617 57.2717 46.9748 56.4843 46.0039 56.4843H45.8789V53.5354C45.8789 49.9708 42.979 47.0704 39.4139 47.0704H36.465V39.2577C37.7921 38.4424 39.0665 37.3726 40.2718 36.0611C45.5878 35.7512 50.5092 32.566 54.2043 27.0128C57.9419 21.3956 60 13.9646 60 6.0883C60 5.11738 59.2131 4.33048 58.2422 4.33048ZM8.72314 25.0655C5.64011 20.4324 3.82874 14.3725 3.5527 7.84613H9.65378C10.2878 15.869 12.171 23.2848 15.1144 29.1712C15.5832 30.1087 16.0735 30.9945 16.582 31.8286C13.6583 30.7244 10.9525 28.4164 8.72314 25.0655ZM42.3633 53.5354V56.4848H17.6367V53.5354C17.6367 51.9094 18.9597 50.586 20.5861 50.586H39.4139C41.0403 50.586 42.3633 51.9094 42.3633 53.5354ZM32.9494 47.0704H27.0506V40.7852C28.017 41.0397 29.0016 41.172 30 41.172C30.9984 41.172 31.983 41.0397 32.9494 40.7852V47.0704ZM34.0379 36.6031C33.9587 36.6356 33.8828 36.6749 33.81 36.7184C32.5676 37.3364 31.2909 37.6564 30 37.6564C28.7096 37.6564 27.4333 37.3364 26.1914 36.7193C26.1177 36.6749 26.0413 36.6356 25.9612 36.6021C24.5828 35.8734 23.2494 34.7729 21.9882 33.3268C21.9218 33.2321 21.8472 33.1446 21.7644 33.065C20.5124 31.5786 19.3346 29.7503 18.2588 27.5988C15.0284 21.1383 13.1625 12.6435 12.9501 3.51565H47.0499C46.837 12.6435 44.9712 21.1388 41.7412 27.5988C40.6654 29.7503 39.4876 31.5786 38.2361 33.065C38.1528 33.1446 38.0772 33.2325 38.0113 33.3273C36.7502 34.7738 35.4163 35.8738 34.0379 36.6031ZM51.2769 25.0655C49.0475 28.4164 46.3417 30.7244 43.418 31.8286C43.9265 30.9945 44.4168 30.1087 44.8856 29.1712C47.829 23.2848 49.7118 15.869 50.3462 7.84613H56.4473C56.1713 14.3725 54.3599 20.4324 51.2769 25.0655Z" fill="white"/>
</svg>
